<svg xmlns="http://www.w3.org/2000/svg" viewBox="0 0 500 500"><g id="freepik--background-complete--inject-97"><rect x="33.4" y="46.81" width="142.13" height="308.92" style="fill:#ebebeb"></rect><rect x="45.57" y="60.19" width="117.79" height="200.74" style="fill:#fff"></rect><polygon points="53.09 382.79 43.7 382.79 43.7 355.73 60.41 355.73 53.09 382.79" style="fill:#ebebeb"></polygon><polygon points="60.41 355.73 57.72 365.7 43.7 365.7 43.7 355.73 60.41 355.73" style="fill:#c7c7c7"></polygon><polygon points="155.84 382.79 165.23 382.79 165.23 355.73 148.52 355.73 155.84 382.79" style="fill:#ebebeb"></polygon><polygon points="148.51 355.73 151.21 365.7 165.23 365.7 165.23 355.73 148.51 355.73" style="fill:#c7c7c7"></polygon><path d="M163.36,283.12c-8.82.18-17.65.28-26.47.35s-17.65.08-26.47.13l.48-.48c0,4.43,0,8.87,0,13.31l-.06,13.31c-.09,8.88-.18,17.75-.41,26.63-.23-8.88-.32-17.75-.41-26.63L110,296.43c0-4.44,0-8.88,0-13.31v-.49h.48c8.82.05,17.65,0,26.47.13S154.54,282.93,163.36,283.12Z" style="fill:#c7c7c7"></path><path d="M110.42,344c8.82-.19,17.65-.29,26.47-.36s17.65-.08,26.47-.13l-.48.49c0-4.36,0-8.71,0-13.06l.06-13.06c.09-8.71.19-17.41.41-26.12.22,8.71.32,17.41.41,26.12l.06,13.06c0,4.35,0,8.7,0,13.06v.48h-.48c-8.82-.05-17.65,0-26.47-.12S119.24,344.15,110.42,344Z" style="fill:#c7c7c7"></path><rect x="116.35" y="304.92" width="4.01" height="15.36" transform="translate(236.71 625.21) rotate(180)" style="fill:#c7c7c7"></rect><path d="M45.57,283.12c8.82-.19,17.65-.29,26.47-.36s17.65-.08,26.47-.13H99v.49c0,4.43,0,8.87,0,13.31l-.06,13.31c-.09,8.88-.18,17.75-.41,26.63-.23-8.88-.32-17.75-.41-26.63L98,296.43c0-4.44,0-8.88,0-13.31l.48.48c-8.82-.05-17.65,0-26.47-.13S54.39,283.3,45.57,283.12Z" style="fill:#c7c7c7"></path><path d="M98.51,344c-8.82.18-17.65.28-26.47.36s-17.65.07-26.47.12h-.48V344c0-4.36,0-8.71,0-13.06l.06-13.06c.1-8.71.19-17.41.41-26.12.22,8.71.32,17.41.41,26.12L46,330.91c0,4.35.05,8.7,0,13.06l-.49-.49c8.82,0,17.65,0,26.47.13S89.69,343.78,98.51,344Z" style="fill:#c7c7c7"></path><rect x="88.57" y="304.92" width="4.01" height="15.36" style="fill:#c7c7c7"></rect><rect x="45.57" y="114.72" width="117.79" height="1.83" style="fill:#c7c7c7"></rect><rect x="45.57" y="161.78" width="117.79" height="1.83" style="fill:#c7c7c7"></rect><rect x="45.57" y="208.84" width="117.79" height="1.83" style="fill:#c7c7c7"></rect><rect x="103.11" y="60.19" width="2.71" height="200.74" style="fill:#ebebeb"></rect><rect x="108.44" y="138.55" width="13.96" height="23.23" transform="translate(230.84 300.33) rotate(180)" style="fill:#ebebeb"></rect><rect x="106.53" y="134.6" width="17.78" height="3.95" transform="translate(230.84 273.15) rotate(180)" style="fill:#dbdbdb"></rect><rect x="110.23" y="143.66" width="10.37" height="14.33" transform="translate(230.84 301.65) rotate(180)" style="fill:#c7c7c7"></rect><rect x="127.25" y="138.55" width="13.96" height="23.23" transform="translate(268.46 300.33) rotate(180)" style="fill:#ebebeb"></rect><rect x="125.34" y="134.6" width="17.78" height="3.95" transform="translate(268.46 273.15) rotate(180)" style="fill:#dbdbdb"></rect><rect x="129.04" y="143.66" width="10.37" height="14.33" transform="translate(268.46 301.65) rotate(180)" style="fill:#c7c7c7"></rect><rect x="146.06" y="138.55" width="13.96" height="23.23" transform="translate(306.08 300.33) rotate(180)" style="fill:#ebebeb"></rect><rect x="144.15" y="134.6" width="17.78" height="3.95" transform="translate(306.08 273.15) rotate(180)" style="fill:#dbdbdb"></rect><rect x="147.85" y="143.66" width="10.37" height="14.33" transform="translate(306.08 301.65) rotate(180)" style="fill:#c7c7c7"></rect><path d="M48,183.76H66.5a0,0,0,0,1,0,0v19.77a5.31,5.31,0,0,1-5.31,5.31H53.31A5.31,5.31,0,0,1,48,203.54V183.76A0,0,0,0,1,48,183.76Z" transform="translate(114.51 392.61) rotate(180)" style="fill:#ebebeb"></path><rect x="51.89" y="181.28" width="10.72" height="2.56" transform="translate(114.51 365.12) rotate(180)" style="fill:#ebebeb"></rect><rect x="49.16" y="178.55" width="16.18" height="2.73" transform="translate(114.51 359.83) rotate(180)" style="fill:#dbdbdb"></rect><rect x="50.97" y="189.84" width="15.53" height="13.54" transform="translate(117.47 393.22) rotate(180)" style="fill:#c7c7c7"></rect><path d="M68.68,183.76h18.5a0,0,0,0,1,0,0v19.77a5.31,5.31,0,0,1-5.31,5.31H74a5.31,5.31,0,0,1-5.31-5.31V183.76A0,0,0,0,1,68.68,183.76Z" transform="translate(155.86 392.61) rotate(180)" style="fill:#ebebeb"></path><rect x="72.57" y="181.28" width="10.72" height="2.56" transform="translate(155.86 365.12) rotate(180)" style="fill:#ebebeb"></rect><rect x="69.84" y="178.55" width="16.18" height="2.73" transform="translate(155.86 359.83) rotate(180)" style="fill:#dbdbdb"></rect><rect x="71.65" y="189.84" width="15.53" height="13.54" transform="translate(158.83 393.22) rotate(180)" style="fill:#c7c7c7"></rect><rect x="107.64" y="230.95" width="23.18" height="29.99" transform="translate(238.46 491.89) rotate(180)" style="fill:#ebebeb"></rect><polygon points="107.64 230.95 130.82 230.95 126.37 224.84 112.08 224.84 107.64 230.95" style="fill:#ebebeb"></polygon><rect x="109.44" y="218.89" width="19.58" height="5.95" transform="translate(238.46 443.72) rotate(180)" style="fill:#c7c7c7"></rect><rect x="110.95" y="237.62" width="19.87" height="13.48" transform="translate(241.76 488.72) rotate(180)" style="fill:#dbdbdb"></rect><rect x="132.56" y="230.95" width="23.18" height="29.99" transform="translate(288.3 491.89) rotate(180)" style="fill:#ebebeb"></rect><polygon points="132.56 230.95 155.74 230.95 151.29 224.84 137 224.84 132.56 230.95" style="fill:#ebebeb"></polygon><rect x="134.36" y="218.89" width="19.58" height="5.95" transform="translate(288.3 443.72) rotate(180)" style="fill:#c7c7c7"></rect><rect x="135.87" y="237.62" width="19.87" height="13.48" transform="translate(291.6 488.72) rotate(180)" style="fill:#dbdbdb"></rect><path d="M95,114.72H53.49a4.33,4.33,0,0,1-4.33-4.33h0a4.33,4.33,0,0,1,4.33-4.32H95a4.33,4.33,0,0,1,4.33,4.32h0A4.33,4.33,0,0,1,95,114.72Z" style="fill:#dbdbdb"></path><path d="M95,105.5H53.49a4.32,4.32,0,0,1-4.33-4.32h0a4.33,4.33,0,0,1,4.33-4.33H95a4.33,4.33,0,0,1,4.33,4.33h0A4.32,4.32,0,0,1,95,105.5Z" style="fill:#dbdbdb"></path><path d="M94.31,96.29H54.21a3.1,3.1,0,0,1-3.11-3.1h0a3.11,3.11,0,0,1,3.11-3.11h40.1a3.11,3.11,0,0,1,3.11,3.11h0A3.1,3.1,0,0,1,94.31,96.29Z" style="fill:#ebebeb"></path><path d="M94.31,89.53H54.21a3.11,3.11,0,0,1-3.11-3.11h0a3.1,3.1,0,0,1,3.11-3.1h40.1a3.1,3.1,0,0,1,3.11,3.1h0A3.11,3.11,0,0,1,94.31,89.53Z" style="fill:#ebebeb"></path><circle cx="416.83" cy="77.06" r="30.25" transform="translate(217.39 451.1) rotate(-72.41)" style="fill:#ebebeb"></circle><circle cx="418.21" cy="77.73" r="28.86" transform="translate(20.71 229.17) rotate(-31.39)" style="fill:#dbdbdb"></circle><circle cx="418.21" cy="77.73" r="27.04" transform="translate(20.77 229.32) rotate(-31.41)" style="fill:#fff"></circle><path d="M444.64,72c-12.31,7.46-32.55,19.7-43.86,26.41a27.08,27.08,0,0,1-7.39-9.94L430.8,53.79A27.07,27.07,0,0,1,444.64,72Z" style="fill:#ebebeb;opacity:0.5"></path><path d="M445.23,78.67a26.72,26.72,0,0,1-1.78,8.79l-33.73,16a26.8,26.8,0,0,1-4.26-1.83C415.65,95.69,434.27,85,445.23,78.67Z" style="fill:#ebebeb;opacity:0.5"></path><rect x="417.95" y="52.65" width="0.52" height="4.1" style="fill:#c7c7c7"></rect><rect x="406.44" y="55.74" width="0.52" height="4.1" transform="translate(25.59 211.08) rotate(-30)" style="fill:#c7c7c7"></rect><rect x="398.01" y="64.17" width="0.52" height="4.1" transform="translate(141.76 378) rotate(-60)" style="fill:#c7c7c7"></rect><rect x="393.14" y="77.47" width="4.1" height="0.52" style="fill:#c7c7c7"></rect><rect x="396.22" y="88.98" width="4.1" height="0.52" transform="translate(8.75 211.12) rotate(-30)" style="fill:#c7c7c7"></rect><rect x="404.65" y="97.41" width="4.1" height="0.52" transform="translate(118.91 401.19) rotate(-60.03)" style="fill:#c7c7c7"></rect><rect x="417.95" y="98.71" width="0.52" height="4.1" style="fill:#c7c7c7"></rect><rect x="429.47" y="95.62" width="0.52" height="4.1" transform="translate(8.74 227.95) rotate(-30)" style="fill:#c7c7c7"></rect><rect x="437.9" y="87.19" width="0.52" height="4.1" transform="translate(141.77 424.06) rotate(-60)" style="fill:#c7c7c7"></rect><rect x="439.19" y="77.47" width="4.1" height="0.52" style="fill:#c7c7c7"></rect><rect x="436.11" y="65.96" width="4.1" height="0.52" transform="translate(25.62 228.02) rotate(-30.01)" style="fill:#c7c7c7"></rect><rect x="427.68" y="57.53" width="4.1" height="0.52" transform="translate(165.02 401.2) rotate(-60.03)" style="fill:#c7c7c7"></rect><polygon points="418.61 54.51 419.5 79.56 416.93 79.52 417.91 54.5 418.61 54.51" style="fill:#c7c7c7"></polygon><polygon points="434.21 69 417.36 79.75 416.13 77.5 433.88 68.38 434.21 69" style="fill:#a6a6a6"></polygon><path d="M419.09,77.73a.88.88,0,1,1-.88-.88A.88.88,0,0,1,419.09,77.73Z" style="fill:#c7c7c7"></path></g><g id="freepik--Shadow--inject-97"><ellipse cx="250" cy="452.34" rx="211.97" ry="22.61" style="fill:#ebebeb"></ellipse></g><g id="freepik--Floor--inject-97"><polygon points="33.4 382.79 87.55 382.55 141.7 382.46 250 382.3 358.3 382.46 412.45 382.55 466.6 382.79 412.45 383.04 358.3 383.13 250 383.29 141.7 383.13 87.55 383.04 33.4 382.79" style="fill:#263238"></polygon></g><g id="freepik--Heart--inject-97"><path d="M305.65,72a77.2,77.2,0,0,1-24.77,21.5A77.2,77.2,0,0,1,256.11,72c-8.72-11.54-8.29-29.61,4.19-33.51C274.1,34.19,280.88,55,280.88,55s6.88-20.9,20.59-16.44C313.9,42.56,314.37,60.49,305.65,72Z" style="fill:#FFC727"></path><polygon points="271.15 84.41 267.38 68.75 264.93 74.27 249.74 74.27 249.74 72.5 263.78 72.5 267.89 63.27 270.82 75.48 274.96 50.18 278.62 70.2 281.52 61.84 286.08 75.52 287.09 72.5 312.04 72.5 312.04 74.26 288.36 74.26 286.08 81.1 281.49 67.33 278.1 77.13 275.06 60.53 271.15 84.41" style="fill:#fff"></polygon></g><g id="freepik--Plant--inject-97"><path d="M428.66,323.93s15.9-3.6,24.61-11.63,13.58-22.4,13.58-22.4A136.21,136.21,0,0,0,449,294.58a30.13,30.13,0,0,0-5.39,7.62,36.06,36.06,0,0,1,0-5.45,24.21,24.21,0,0,0-5.66,3.44C430.7,306.51,428.66,323.93,428.66,323.93Z" style="fill:#FFC727"></path><path d="M456.92,296.89c2.17-1.5,4.37-2.95,6.53-4.46.13-.09,0-.3-.13-.21-4.1,2.44-8.13,5.06-12,7.79q-2,1.44-4,3c.09-.16.18-.32.28-.48.47-.79,1-1.58,1.48-2.36a33.61,33.61,0,0,1,3.37-4.5c.05-.05,0-.13-.08-.08-1.23,1.43-2.47,2.84-3.6,4.36-.54.72-1,1.46-1.51,2.22-.25.4-.48.8-.71,1.2l-.24.41c-2.06,1.62-4.06,3.3-6,5.08-1.18,1.1-2.31,2.24-3.41,3.41.61-1.92,1.15-3.87,1.86-5.76,0-.07-.08-.09-.1,0-.69,2-1.45,4-2,6-1.21,1.31-2.38,2.67-3.47,4.09,0-.08,0-.17.05-.26.18-.75.37-1.49.57-2.24.39-1.44.81-2.86,1.29-4.27a25,25,0,0,1,4.27-8.07c0-.05,0-.12-.07-.07a30.87,30.87,0,0,0-6.09,12.71c-.17.68-.33,1.36-.49,2-.08.36-.17.73-.23,1.1-.48.64-1,1.3-1.41,2a68.83,68.83,0,0,0-6.72,13.19,154.45,154.45,0,0,0-5.1,15.88.09.09,0,0,0,.17,0c3.1-9.3,6.28-18.73,11.6-27a62.33,62.33,0,0,1,3.63-5.07,30.47,30.47,0,0,0,7.73-1.54,34.84,34.84,0,0,0,7.75-3.74c1.39-.91,2.67-2,4-3a.06.06,0,1,0-.07-.09,31.85,31.85,0,0,1-7.29,4.41,39.6,39.6,0,0,1-8,2.69c-1.17.26-2.36.45-3.55.61a69.86,69.86,0,0,1,4.69-5.2c.53-.53,1.09-1,1.64-1.56a38.06,38.06,0,0,1,5.88-3.37c2.6-1.25,5.16-2.59,7.74-3.9,1.46-.74,2.9-1.5,4.37-2.21.06,0,0-.12-.06-.09-2.61,1.26-5.27,2.44-7.9,3.65-2.48,1.13-5,2.27-7.38,3.61l-.3.18q3.24-2.81,6.66-5.38C452.61,300,454.75,298.39,456.92,296.89Z" style="fill:#263238"></path><path d="M456,305.08c-1.3.57-2.61,1.07-3.89,1.67a42.47,42.47,0,0,0-3.81,2.07c-.06,0,0,.11.05.08,1.27-.6,2.55-1.17,3.8-1.8s2.56-1.34,3.88-1.92C456.11,305.16,456.08,305.05,456,305.08Z" style="fill:#263238"></path><path d="M377,243.84a22.73,22.73,0,0,1,4.75,13.2c.05,1.42-.17,3.41-.34,5.74a37.82,37.82,0,0,1,10.38,8.87,18.84,18.84,0,0,0-10.49-2.51,32.19,32.19,0,0,0,.61,4.75,17.83,17.83,0,0,1,6.74,1.33,15,15,0,0,0-6.08,1.21c2.84,9,11.26,18.27,34.51,22.21A48.78,48.78,0,0,0,413,265.91C406,252.2,377,243.84,377,243.84Z" style="fill:#FFC727"></path><path d="M425.16,337.2c-.4-3.85-.91-7.69-1.5-11.51A232.11,232.11,0,0,0,419,302.92a92.23,92.23,0,0,0-3.36-10.37,16.55,16.55,0,0,0,.09-1.86c0-.75,0-1.49,0-2.24,0-1.49-.09-3-.22-4.46a53.74,53.74,0,0,0-1.42-8.72c-.43-1.65-.92-3.28-1.41-4.92a.05.05,0,1,0-.1,0,64,64,0,0,1,1.71,8.7,79.73,79.73,0,0,1,.78,8.73c0,.8.05,1.6.05,2.4,0,.34,0,.68,0,1a73.69,73.69,0,0,0-3.92-8.11,97.5,97.5,0,0,0-8-11.9,4.7,4.7,0,0,0-.19-1.3l-.33-1.56c-.24-1.06-.51-2.12-.8-3.17-.58-2.11-1.34-4.14-2-6.22a.05.05,0,1,0-.1,0c.61,2.06,1,4.19,1.49,6.29.24,1,.46,2.07.69,3.11.11.52.23,1,.33,1.56a.5.5,0,0,1,0,.12c-.94-1.19-1.89-2.36-2.88-3.51-4.44-5.21-9.31-10-14.21-14.78-.6-.59-1.22-1.16-1.83-1.74-.05-.05-.12,0-.07.08C388,255,392.6,260,397,265.13q1.56,1.85,3.06,3.73l-1.58-1.05c-1.36-.88-2.73-1.74-4.14-2.53s-2.83-1.57-4.28-2.29-3.09-1.34-4.52-2.17c-.07,0-.12.06-.06.09a34.49,34.49,0,0,1,4.25,2.35c1.41.84,2.83,1.69,4.22,2.57s2.74,1.72,4.09,2.6c1.13.74,2.25,1.54,3.42,2.22a110.09,110.09,0,0,1,7.45,10.84,78.31,78.31,0,0,1,3.85,7.3l-.83-.36-2.13-.94c-1.37-.61-2.74-1.2-4.12-1.8-2.6-1.13-5.25-2.18-7.81-3.42a34.62,34.62,0,0,1-4.17-2.32c-.06,0-.11.06-.06.1,4.77,3.28,10.12,5.6,15.39,7.93l2.29,1c.63.28,1.26.59,1.91.83a82.54,82.54,0,0,1,3.93,10.78,218.77,218.77,0,0,1,5.06,22.49c1.33,7.6,2.23,15.24,2.93,22.92.09,1,.18,1.92.29,2.87a.3.3,0,0,0,.6,0C426,345,425.57,341.08,425.16,337.2Z" style="fill:#263238"></path><path d="M411,273c-.42-2.36-1.05-4.67-1.69-7,0-.06-.12,0-.1,0,.59,2.28,1,4.59,1.43,6.9s.82,4.71,1.16,7.08c0,0,.06,0,.06,0A61.26,61.26,0,0,0,411,273Z" style="fill:#263238"></path><path d="M401,279.39a41.63,41.63,0,0,0-5.05-2.84c-.85-.44-1.71-.86-2.57-1.27s-1.8-.79-2.68-1.23a.06.06,0,0,0-.05.1c.85.42,1.65.94,2.49,1.39l2.58,1.42c1.7.91,3.37,1.92,5.16,2.66A.13.13,0,0,0,401,279.39Z" style="fill:#263238"></path><path d="M429,296.4s14.71-3.51,21.46-13.38c6.45-9.42,8.53-25.48,8.7-26.89-.27,1.29-3.3,15.33-13.31,21.87C438.13,283,430.72,287.13,429,296.4Z" style="fill:#263238;opacity:0.1"></path><path d="M442.53,271a18.82,18.82,0,0,0-5.43,8.93s0,.05,0,0a21.87,21.87,0,0,1,5.45-8.87C442.65,271,442.58,270.94,442.53,271Z" style="fill:#263238"></path><path d="M429,296.4s14.71-3.51,21.46-13.38c6.45-9.42,8.53-25.48,8.7-26.89a.65.65,0,0,1,0-.1s-7.06,10-14.47,12.58S426.83,280,429,296.4Z" style="fill:#FFC727"></path><path d="M456.52,261.56a58.66,58.66,0,0,1-4.55,7.77,31.06,31.06,0,0,1-6.05,6.23c-2,1.58-4.11,3-6.13,4.58l0-.08c.38-.56.78-1.11,1.2-1.64.84-1.08,1.76-2.09,2.69-3.1,1.83-2,3.69-3.93,5.33-6.07a22.29,22.29,0,0,0,2.36-3.8c0-.06-.07-.1-.1,0-2.39,5-7.15,8.15-10.55,12.35a22.1,22.1,0,0,0-1.36,1.86,7.36,7.36,0,0,0-.85,1.5,30,30,0,0,0-5,5.07,19.6,19.6,0,0,1,.59-2.86,14.43,14.43,0,0,1,1.55-3.72.05.05,0,1,0-.09-.06,18,18,0,0,0-1.71,3.7,12.84,12.84,0,0,0-.54,3.18h0a27.87,27.87,0,0,0-2,3.08l.18-.94c.29-1.46.62-2.92,1-4.37a26.35,26.35,0,0,1,3.53-8.29c0-.05-.05-.11-.09-.05a31.6,31.6,0,0,0-3.92,8.1c-.46,1.44-.84,2.91-1.17,4.39-.16.73-.31,1.45-.45,2.18-.07.38-.15.76-.21,1.15a52.79,52.79,0,0,0-3.39,10,146,146,0,0,0-3.14,18.59,155.17,155.17,0,0,0-1,19.75c0,.83.06,1.65.11,2.48,0,.21.33.24.34,0,.14-3.26.23-6.53.42-9.79s.48-6.52.83-9.77a172.32,172.32,0,0,1,3.06-19c1.19-5.37,2.74-10.79,5.68-15.5a29.13,29.13,0,0,1,5.3-6.31c2.07-1.85,4.32-3.47,6.49-5.18a35.15,35.15,0,0,0,6-5.73,46.5,46.5,0,0,0,4.68-7.59c.34-.67.7-1.33,1.05-2C456.64,261.56,456.55,261.5,456.52,261.56Z" style="fill:#263238"></path><path d="M454,263.71a49.83,49.83,0,0,1-3.27,5.73c0,.05,0,.09.06.05a39.93,39.93,0,0,0,3.31-5.74C454.11,263.69,454,263.65,454,263.71Z" style="fill:#263238"></path><path d="M375,289.9s-.23,20.9,12.27,26.93,19.19,1,27.68,3h0c-.33-.5-6.39-9.21-16-11.61C389,305.77,378,298.61,375,289.9Z" style="fill:#FFC727"></path><path d="M375,289.9s-.23,20.9,12.27,26.93,19.19,1,27.68,3h0a47.34,47.34,0,0,0-14.21-4.19C392.83,314.71,377.78,309.57,375,289.9Z" style="opacity:0.1"></path><path d="M415.76,320.23a20.9,20.9,0,0,0-5-3.36c-.27-.13-.55-.24-.82-.35a4.81,4.81,0,0,0-.42-.48,15.61,15.61,0,0,0-1.18-1.12,17.2,17.2,0,0,0-2.51-1.81c-2.07-1.22-4.34-2.07-6.46-3.2-.06,0-.11.06,0,.09,1,.54,2.06,1.14,3.08,1.74s2,1.13,3,1.75a23.37,23.37,0,0,1,2.47,1.85c.22.2.43.41.64.62a32.38,32.38,0,0,0-4.22-1.12c-2.29-.47-4.6-.79-6.89-1.28a31.08,31.08,0,0,1-3.31-.9c-1-.83-2.07-1.66-3.06-2.57a25.55,25.55,0,0,1-3.23-3.58c0-.05-.13,0-.09.06a38.1,38.1,0,0,0,5.12,5.65c-.53-.2-1.07-.42-1.59-.66a25.72,25.72,0,0,1-10.65-8.86.05.05,0,1,0-.09.06,29.26,29.26,0,0,0,8.61,8.27,26.27,26.27,0,0,0,5.44,2.57,49.31,49.31,0,0,0,6.77,1.6,48.3,48.3,0,0,1,6.62,1.58,20.06,20.06,0,0,1,5.55,2.92A25.93,25.93,0,0,1,421,329a46.47,46.47,0,0,1,4.13,15.28c0,.22.37.22.35,0C424.88,335.47,422.53,326.33,415.76,320.23Z" style="fill:#263238"></path><path d="M401.25,313.42a7.11,7.11,0,0,0-2.57-2.33,9.44,9.44,0,0,1-3.05-2.53.05.05,0,1,0-.09.06,10.19,10.19,0,0,0,2.7,2.41,9.61,9.61,0,0,1,2.94,2.43C401.21,313.51,401.29,313.47,401.25,313.42Z" style="fill:#263238"></path><polygon points="407.88 335.66 408.45 347.15 410.2 382.26 436.41 382.26 438.15 347.15 438.72 335.66 407.88 335.66" style="fill:#455a64"></polygon><polygon points="407.88 335.66 408.45 347.15 438.15 347.15 438.72 335.66 407.88 335.66" style="fill:#263238"></polygon><rect x="406.05" y="330.86" width="34.51" height="10.96" transform="translate(846.61 672.68) rotate(180)" style="fill:#455a64"></rect></g><g id="freepik--character-3--inject-97"><path d="M428.66,440.74c-2.33.77-68.86.58-71.4-1-.95-.6-1.49-10.3-1.81-22-.07-2.53-.16-43.36-.16-43.36H398.6l-.26,43.36s25.44,11.48,28,13.54S431,440,428.66,440.74Z" style="fill:#f7a9a0"></path><path d="M355.61,422.82c.33,9.31.84,16.38,1.66,16.9,2.52,1.6,69.05,1.79,71.39,1s.28-7.46-2.29-9.51c-1.43-1.14-9.76-5.12-17-8.47,2.52,1.56,5.73,3.78,5.44,5.1C414.29,430.44,381.16,432.12,355.61,422.82Z" style="fill:#FFC727"></path><path d="M355.61,422.82c.33,9.31.84,16.38,1.66,16.9,2.52,1.6,69.05,1.79,71.39,1s.28-7.46-2.29-9.51c-1.43-1.14-9.76-5.12-17-8.47,2.52,1.56,5.73,3.78,5.44,5.1C414.29,430.44,381.16,432.12,355.61,422.82Z" style="opacity:0.4"></path><path d="M339.38,189.76s11.71,115.77,12,117.23c0,.2.12,2.43.23,6.06C352.23,333,353,401,353,401H400.7s-2.27-79.44-4.06-96.61c-2.28-21.91-16.74-114.59-16.74-114.59Z" style="fill:#37474f"></path><path d="M357.06,311.07q-2.21-37.62-6.64-75.07c-1.68-14.07-3.7-28.08-5.7-42.11,0-.12-.21-.11-.2,0,3.7,24.95,6.32,50.11,8.57,75.23.8,8.88,2.31,24.17,3.11,42,1.47,32.55,2.09,71.48,2.39,80.7a.27.27,0,0,0,.53,0C358.44,366.37,358.55,336.47,357.06,311.07Z" style="fill:#263238"></path><path d="M397.42,393c-21.76-.68-40.6-.2-42.22-.07-1.35.1-.6.25.07.29,18.48,1.1,41.43.06,42.16,0A.1.1,0,1,0,397.42,393Z" style="fill:#263238"></path><path d="M339.38,189.76s11.71,115.77,12,117.23c0,.2.12,2.43.23,6.06l22.51-123.29Z" style="fill:#263238"></path><path d="M353.19,446.51c-2.41.42-69.47-9.91-71.74-11.87-.86-.74,11.06-64.23,11.06-64.23l43.76,6.46-8,43.45s21.85,14,24.1,16.43S355.6,446.09,353.19,446.51Z" style="fill:#f7a9a0"></path><path d="M281.45,434.63c2.27,2,69.33,12.3,71.75,11.88s1.37-7.35-.88-9.76c-1.31-1.4-9.16-6.67-15.55-10.88,2.27,2,5.46,5,4.93,6.3-1,2.46-34.05-1.45-57.69-14.94C282.33,427,281.16,434.39,281.45,434.63Z" style="fill:#FFC727"></path><path d="M281.45,434.63c2.27,2,69.33,12.3,71.75,11.88s1.37-7.35-.88-9.76c-1.31-1.4-9.16-6.67-15.55-10.88,2.27,2,5.46,5,4.93,6.3-1,2.46-34.05-1.45-57.69-14.94C282.33,427,281.16,434.39,281.45,434.63Z" style="opacity:0.4"></path><path d="M379.9,189.76s-1.42,11.78-8.18,20.28c-1.62,2-6.59,3.93-9.16,5.81,0,0-9.61,88.26-12.53,98.27-3.25,11.1-15.94,87-15.94,87l-49.22-6.79s14.32-71.25,17.87-89.71c.8-4.12,11.48-81.81,11.24-83.61-2.87-21.39,7.54-31.29,7.54-31.29Z" style="fill:#37474f"></path><path d="M342.29,190.6a21.12,21.12,0,0,1-5.94,10.57,19.27,19.27,0,0,1-10.81,5.46c-.64.07-.56.51.12.5,7.79,0,15.72-6.35,16.95-16.47A.16.16,0,1,0,342.29,190.6Z" style="fill:#263238"></path><path d="M372.65,209.69a42.51,42.51,0,0,0-8,4.27c-2.67,1.65-5.14,3.59-7.72,5.38-.1.06,0,.23.09.16,2.71-1.56,5.53-2.91,8.2-4.51a51.84,51.84,0,0,0,7.59-5.09C372.85,209.82,372.76,209.65,372.65,209.69Z" style="fill:#263238"></path><path d="M373.74,193.45c-.42,1.79-.93,3.55-1.4,5.32s-.79,3.36-1.31,5a8.53,8.53,0,0,1-2.54,4.12c-.69.58-1.44,1.09-2.17,1.62-.39.28-.81.56-1.22.84.06-.23.12-.47.17-.71.15-.68.3-1.36.44-2,.33-1.5.64-3,.94-4.51.59-3,1.15-6,1.91-8.89a.1.1,0,0,0-.19-.06c-.87,2.9-1.83,5.76-2.61,8.68-.38,1.44-1.84,8.53-1.91,9s-.15,1-.19,1.56a6.72,6.72,0,0,0-.08,1.61.14.14,0,0,0,.25,0h0a6,6,0,0,0,.53-1.54c.15-.5.29-1,.41-1.53,0-.18.08-.37.11-.56.72-.4,1.41-.94,2.09-1.38s1.48-.95,2.17-1.49a8,8,0,0,0,2.75-3.89,28.57,28.57,0,0,0,1.08-5.1c.32-2,.58-4.06,1-6.07C374,193.39,373.77,193.33,373.74,193.45Z" style="fill:#263238"></path><path d="M331.8,391.45c-21.45-3.71-40.17-5.86-41.8-6-1.35-.08-.63.16,0,.3,18.15,3.66,41,5.83,41.75,5.85A.1.1,0,0,0,331.8,391.45Z" style="fill:#263238"></path><path d="M299.72,342.7c2.82-12.35,5.37-24.73,7.46-37.22s3.77-24.93,5.37-37.43,3.23-25.22,4.85-37.83c.39-3.06,1-6.21.89-9.31s-1.18-5.93-1.47-8.94a40.35,40.35,0,0,1,2.47-17.23c.49-1.4,1-2.77,1.64-4.13.08-.17.36-.1.29.1-1.88,5.7-3.63,11.56-3.72,17.62a41.4,41.4,0,0,0,1.18,9.14,26.41,26.41,0,0,1,.16,8.87Q316.49,245.16,314,264c-1.6,12.5-3.24,25-5.22,37.45s-4.31,24.74-7.12,37-5.71,24.69-8.8,37c-.38,1.53-.76,3.05-1.17,4.58,0,.17-.3.09-.27-.09C293.94,367.45,296.89,355.08,299.72,342.7Z" style="fill:#263238"></path><path d="M367.92,82.59c-3.75-4.55-10.13-5.66-16.32-4.38S338,82.71,337.35,93.43c-.54,8.71,2.09,17.21,2.07,26.92s-10.54,33.36,6.46,45c15.27,10.41,46.16,1,47.06-20.4.71-16.93-18.69-32.62-20.74-39.33S372,87.57,367.92,82.59Z" style="fill:#263238"></path><path d="M370.72,92.15a38.76,38.76,0,0,0,2.77,14.32,13.83,13.83,0,0,0,1.93,3.22c.75,1,1.55,1.9,2.34,2.82,1.61,1.82,3.21,3.62,4.71,5.5A50.18,50.18,0,0,1,390,130.2a39.65,39.65,0,0,1,3,14,34.21,34.21,0,0,0-.23-7.29,36.66,36.66,0,0,0-1.82-7.12,44.87,44.87,0,0,0-7.39-12.65c-1.54-1.9-3.18-3.72-4.8-5.51a24.94,24.94,0,0,1-4.28-5.64,32,32,0,0,1-2.36-6.75A63,63,0,0,1,370.72,92.15Z" style="fill:#263238"></path><path d="M337.81,100.75c.12,4.94.43,9.88.32,14.78a63.2,63.2,0,0,1-.58,7.3c-.34,2.38-1,4.76-1.59,7.17s-1.08,4.85-1.45,7.31a43.51,43.51,0,0,0-.45,7.48,27.32,27.32,0,0,0,1.36,7.39,18.6,18.6,0,0,0,4,6.26A19.92,19.92,0,0,1,336,152a26.91,26.91,0,0,1-.94-7.2,64.82,64.82,0,0,1,2.16-14.46c.54-2.4,1.22-4.78,1.55-7.31a50.44,50.44,0,0,0,.35-7.47A125.65,125.65,0,0,0,337.81,100.75Z" style="fill:#263238"></path><path d="M358.94,142.2c4.55,11.32,22.65,47.87,34.54,50.45,7.8,1.69,39.33-1.36,44.75-8.82,2.37-3.25-1.63-25.91-5.83-25s-29.48,4.24-32.58,3.34-26.37-27.69-35.06-34.34C349.77,116.35,356.49,136.11,358.94,142.2Z" style="fill:#f7a9a0"></path><path d="M422.86,157.19l.67,34s-25,4.56-35.67.43c-13-5-30.72-46.38-33.12-53.16-3.92-11.13-2.49-17.73,3.58-15.89,2.36.7,5.42,2.69,9.13,6.2,3.89,3.66,26.11,27.33,33.22,31.9C404.65,163.27,422.86,157.19,422.86,157.19Z" style="fill:#ebebeb"></path><path d="M417.2,189.79c-.25-5-.52-25.64-.28-30.1,0-.3.22-.37.24-.05,1.12,15.05.25,25.19.24,30.14A.1.1,0,0,1,417.2,189.79Z" style="fill:#263238"></path><path d="M413,192.69c-8.13.85-19,1.34-25.09-1-13-5-30.72-46.37-33.11-53.16-3.93-11.13-2.5-17.73,3.57-15.89.19.06.38.12.57.2Z" style="fill:#a6a6a6"></path><path d="M377.92,170.82l4.75,32.69s-53.26.78-66.48-.15c0,0,10.79-61.1,25-76.53,7.11-7.72,15.46-7.15,20.78-1.75,1.35,1.37,17.41,22.6,19.11,30.71C382.55,163,377.92,170.82,377.92,170.82Z" style="fill:#FFC727"></path><path d="M347.09,122.3s4.62,175.51.22,183.05c-2.69,4.6-47.06-6.42-47.06-6.42s11.47-104,24.65-141C337.12,123.62,347.09,122.3,347.09,122.3Z" style="fill:#ebebeb"></path><path d="M313.69,237.83c-.23,7.28.11,15.52,1.66,17,2.9,2.84,10.63,2.6,13,2.58s11.08,0,13.11-4.49c.9-2,1.14-12.13,1.11-15.73,0-1.46-.34-8.65-.44-9.46,0-.19-.55-.16-.56,0-.13.82-.05,3.81-.09,4.38-13.93,1.79-22.56.29-27-.57,0-1.35,0-2.39,0-3.74a75.81,75.81,0,0,0,13.2,1.25c4.83,0,12.1-.72,14.47-1,.11,0,0-.55-.14-.55-1.81,0-8.11.64-14.45.64A114.73,114.73,0,0,1,314,227.05C313.8,227.12,313.8,234.34,313.69,237.83Zm2.5,16.2c-1.54-1.76-1.72-6.85-1.72-9.89,0-4.19,0-7.53,0-11.72,10.72,2.49,22.53,1.26,27,.36,0,.18.08,9,0,11.83-.11,3.6-.22,6.85-1.6,8.72-1.19,1.6-4.53,3.21-12.2,3.2C322.16,256.52,317.48,255.51,316.19,254Z" style="fill:#a6a6a6"></path><path d="M381.89,302.07c1.82,2.2,16.45-5,16.45-5L378.21,170.23a21.24,21.24,0,0,0,2.88-14.3c-1.38-8-18.08-31.1-20.78-32.3a256.93,256.93,0,0,1,5.79,36.26C370.74,209.86,379.31,298.93,381.89,302.07Z" style="fill:#ebebeb"></path><path d="M375.83,145.13c-1.48-2.37-3-4.71-4.47-7.1,0-.07.06-.15.11-.08,1.49,2,2.94,3.94,4.38,5.93-.47-1.07-.94-2.14-1.37-3.23-.05-.12.13-.23.19-.1.66,1.4,1.26,2.82,1.84,4.25a41,41,0,0,1,3.41,5.63,19.6,19.6,0,0,1,1.8,13.29,16.38,16.38,0,0,1-1.33,3.64c-.39.79-1.67,2.49-1.66,2.54.83,4.66,1.46,9.37,2.11,14.06s1.34,9.49,1.89,14.24c.32,2.7.52,5.41.91,8.09,0,.1-.14.14-.15,0-.34-2.33-.85-4.65-1.26-7s-.81-4.66-1.19-7c-.76-4.72-1.43-9.46-2.11-14.19-.39-2.68-.81-5.35-1.12-8a27.85,27.85,0,0,1,1.53-2.94,18.67,18.67,0,0,0,1.17-3.07,17.22,17.22,0,0,0,.57-6.62C380.56,153,378.21,148.93,375.83,145.13Z" style="fill:#263238"></path><path d="M360.44,124.15q2.35,3.57,4.78,7.07c1.63,2.33,3.23,4.69,4.89,7l0-.56-4,4.19-.33.34.35.34c1.68,1.63,3.39,3.23,5.09,4.83l-.14-.42c-.62,4.34-1.28,8.66-1.83,13s-1.13,8.68-1.61,13q1.23-6.45,2.3-12.93c.75-4.31,1.4-8.64,2.08-13l0-.24-.18-.17c-1.69-1.62-3.37-3.25-5.08-4.84l0,.68,3.92-4.25L371,138l-.21-.28c-1.68-2.3-3.42-4.55-5.13-6.82S362.21,126.38,360.44,124.15Z" style="fill:#a6a6a6"></path><path d="M332.64,132.79c-21,19.66-45.62,53.74-36.92,62.09,5.78,5.54,34.74-31.49,34.23-31.4-1.08.2,5.2-12.1,12.9-27C351.44,119.83,344.62,121.56,332.64,132.79Z" style="fill:#f7a9a0"></path><path d="M342.86,124.22c-14.59,7.23-54.74,54-49.49,68.43s38.4-29,38.06-29.59,8.07-17.09,11.5-23.78S350.63,120.36,342.86,124.22Z" style="fill:#ebebeb"></path><path d="M340.87,147.09c-.8.85-1.59,1.71-2.35,2.6l-.41.51.69-1.42a49.76,49.76,0,0,0,2.33-5c0-.08-.08-.12-.13-.06a54.29,54.29,0,0,0-2.83,5.05c-.89,1.65-1.8,3.31-2.66,5s-1.74,3.34-2.57,5a38.28,38.28,0,0,0-2.27,5.07.1.1,0,0,0,.17.08,40.25,40.25,0,0,0,2.9-5c.88-1.66,1.72-3.35,2.57-5,.36-.7.71-1.41,1.05-2.12l.41-.46c.38-.42.73-.87,1.08-1.32.72-.92,1.4-1.87,2.08-2.83C341,147.1,340.9,147.06,340.87,147.09Z" style="fill:#263238"></path><path d="M347,124.31c-1.1,2.55-2.21,5.09-3.36,7.62s-2.27,5-3.46,7.55l-.11-.54,4.22,3.62.35.3-.27.38c-1.3,1.83-2.63,3.64-3.95,5.44l.07-.43c1.17,4.21,2.39,8.41,3.5,12.64s2.26,8.45,3.31,12.69q-2-6.22-3.92-12.5c-1.3-4.17-2.49-8.37-3.73-12.56l-.07-.24.14-.19c1.31-1.83,2.61-3.66,3.94-5.46l.08.68-4.16-3.7-.26-.23.15-.31c1.2-2.49,2.47-4.94,3.71-7.41S345.71,126.74,347,124.31Z" style="fill:#a6a6a6"></path><path d="M344.85,128.34c-.35-5.24,3.93-7.1,7.85-7.63,4.64-.63,7.74-.24,10,4.27,2.35,4.75,3.57,10.27,4.49,15.47a.77.77,0,0,0,1.51-.25c-1.06-6-2.57-17.16-8.53-20.43-5.48-3-17.38-.06-16.79,8.81.06,1,1.58.74,1.51-.24Z" style="fill:#455a64"></path><path d="M371.84,142.63a3.52,3.52,0,1,1-4-2.92A3.52,3.52,0,0,1,371.84,142.63Z" style="fill:#263238"></path><path d="M370.45,142.85a2.12,2.12,0,1,1-2.42-1.76A2.12,2.12,0,0,1,370.45,142.85Z" style="fill:#ebebeb"></path><path d="M350.14,144.75c3.85,14.71,3.25,18.3,2,20a9.73,9.73,0,0,1-3.46,2.78l-.44-1,.22.49-.22-.49a8.94,8.94,0,0,0,3-2.43c.88-1.23,1.62-4.53-2.19-19.1Z" style="fill:#c7c7c7"></path><rect x="347.17" y="165.27" width="2.28" height="3.7" rx="1.11" transform="translate(370.12 552.82) rotate(-118.87)" style="fill:#263238"></rect><path d="M340.54,145.1c-2.94,11.08-3.65,17.14-2.25,19.09a8.8,8.8,0,0,0,3,2.44l-.45,1a9.82,9.82,0,0,1-3.45-2.79c-1.67-2.32-1.06-8.11,2.09-20Z" style="fill:#c7c7c7"></path><path d="M341.25,165.35h0a1.11,1.11,0,0,1,1.11,1.11v1.47a1.12,1.12,0,0,1-1.12,1.12h0a1.11,1.11,0,0,1-1.11-1.11v-1.47a1.11,1.11,0,0,1,1.11-1.11Z" transform="translate(29.33 384.26) rotate(-60.93)" style="fill:#263238"></path><path d="M339.14,144.36a62.61,62.61,0,0,1,1.92-7.25,6.51,6.51,0,0,1,2.15-2.62c.21,0,.12-1.88,0-3.41-.09-1.34-.23-2.91.09-3.34a1.06,1.06,0,0,1,1.47-.08c.37.4.38,2,.43,3.32.05,1.53.15,3.4.36,3.4a7,7,0,0,1,2.28,2.42,51.32,51.32,0,0,1,2.53,7.24c.34,1.58-.18,1.77-.63,1.93-.64.21-1-.22-1.54-2-.79-2.76-1.79-7.42-3.71-7.4h0c-1.91.19-2.69,5.12-3.31,7.86-.39,1.72-.75,1.89-1.41,1.74C339.31,146.08,338.84,145.88,339.14,144.36Z" style="fill:#263238"></path><path d="M357.31,146.18s-3.7-5.55.28-7.76,6.75,3.85,6.75,3.85Z" style="fill:#455a64"></path><path d="M387,183h0l.17,6.52.06,2.15-1.81-1.18L380,186.92h0l-22.77-41,7-3.9L387,183Z" style="fill:#455a64"></path><polygon points="387.16 189.53 387.22 191.68 385.41 190.5 387.16 189.53" style="fill:#37474f"></polygon><rect x="356.33" y="143.66" width="9.39" height="1.86" transform="translate(-24.77 193.67) rotate(-29.08)" style="fill:#263238"></rect><rect x="357.33" y="145.46" width="9.39" height="1.86" transform="translate(-25.51 194.4) rotate(-29.08)" style="fill:#263238"></rect><polygon points="358.38 149.48 361.02 148.01 367.8 163.64 366.8 164.13 358.38 149.48" style="fill:#263238"></polygon><path d="M295.72,194.88c7.9,7.67,39.38,3.56,59.45-2.46,3.82-1.14-8.52-35.11-12.45-33.47A106.51,106.51,0,0,1,330,163.48C328.87,163.68,287.07,186.47,295.72,194.88Z" style="fill:#f7a9a0"></path><path d="M390.17,160.37c-.29,3.8-9.61,2.29-9.61,2.29a7.06,7.06,0,0,1,2.54,4.06c.48,2.86-3.8,4.87-3.8,4.87a8.62,8.62,0,0,1,2,4.71c.19,2.78-3.84,5.42-3.84,5.42a7.64,7.64,0,0,1-.85,5.25c-2.59,4.16-10.1,3.63-14.81,4.23a97.58,97.58,0,0,0-15.59,3.6l-5.82-34.9s21.07-10.29,26.67-9.56C371.77,151,390.62,154.55,390.17,160.37Z" style="fill:#f7a9a0"></path><path d="M380.49,162.54c-4.86-1.85-10.15-2.54-15.26-3.14-.11,0-.13.16,0,.17,5.09.55,10.16,2.47,15.22,3.21A.13.13,0,0,0,380.49,162.54Z" style="fill:#263238"></path><path d="M379.2,171.19a13.44,13.44,0,0,0-3.51-.48c-1.26-.09-2.51-.15-3.76-.2-2.52-.09-5-.12-7.54-.07-.11,0-.14.17,0,.17q3.75.13,7.5.42,1.88.15,3.75.33a16.14,16.14,0,0,0,3.54.17A.18.18,0,0,0,379.2,171.19Z" style="fill:#263238"></path><path d="M377.35,181.72a9.15,9.15,0,0,0-3.18-.27l-3.44-.07c-2.29-.06-4.58-.12-6.86-.26-.12,0-.14.17,0,.18,2.32.15,4.64.34,7,.47l3.43.17a8.54,8.54,0,0,0,3.11-.11A.06.06,0,0,0,377.35,181.72Z" style="fill:#263238"></path><path d="M293.37,192.65C298.62,207,344.54,196,344.54,196l-.46-37.8s-12.31,5.49-12.65,4.86S288.12,178.25,293.37,192.65Z" style="fill:#ebebeb"></path><path d="M339.1,193.35c-.37-5-1.11-25.62-1-30.08,0-.31.21-.38.24-.06,1.46,15,.82,25.18.93,30.12C339.3,193.46,339.11,193.48,339.1,193.35Z" style="fill:#263238"></path><path d="M343.8,158.21a26.45,26.45,0,0,0-3.92,1.38c-1.15.45-2.3.89-3.45,1.36-2.48,1-4.95,2.08-7.4,3.17s-4.9,2.2-7.33,3.35-4.77,2.43-7.2,3.58c-.11,0,0,.22.1.17,2.45-1.11,5-2.06,7.47-3.1l7.29-3.09c2.43-1,4.87-2,7.3-3.07,1.19-.5,2.37-1,3.56-1.53a29.21,29.21,0,0,0,3.77-1.74A.26.26,0,0,0,343.8,158.21Z" style="fill:#263238"></path><path d="M344.7,195.18c0-.25-.13-.31-.2-.05l-.11.56c-1.56.26-7.26,1.44-8.65,1.72-2.92.57-5.79,1.28-8.74,1.65a111.65,111.65,0,0,1-12.36.89.1.1,0,0,0,0,.19,110.74,110.74,0,0,0,12.38-.35c3-.34,6-.82,9-1.43q2.22-.47,4.41-1a21.44,21.44,0,0,0,4.16-1.25.31.31,0,0,0,.16-.26Z" style="fill:#263238"></path><polygon points="417.79 194.71 378.2 195.56 395.6 144.38 435.19 143.53 417.79 194.71" style="fill:#fff"></polygon><polygon points="420.5 194.65 380.91 195.5 398.31 144.32 437.9 143.47 420.5 194.65" style="fill:#37474f"></polygon><path d="M402.52,144.23a3.5,3.5,0,0,1-1.66,2.11c-.37.21-.48-.28-.11-.48a2.66,2.66,0,0,0,1.12-1.33c0-.09.07-.19.09-.28a1.89,1.89,0,0,0,0-1,.6.6,0,0,0-.23-.35l0,0-.05,0h-.07a.45.45,0,0,0-.28,0,1.15,1.15,0,0,0-.45.3,2.41,2.41,0,0,0-.38.54,2.75,2.75,0,0,0-.17.29l0,.07a.31.31,0,0,0-.05.1s0,0,0,.07h-.56a4,4,0,0,1,.51-1,2.13,2.13,0,0,1,1.5-1,.86.86,0,0,1,.9.79A2.33,2.33,0,0,1,402.52,144.23Z" style="fill:#c7c7c7"></path><path d="M405.62,144.17a3.54,3.54,0,0,1-1.66,2.1c-.37.21-.48-.28-.11-.48a2.62,2.62,0,0,0,1.12-1.33c0-.09.06-.19.08-.28a1.8,1.8,0,0,0,0-1,.61.61,0,0,0-.23-.34s0,0,0,0,0,0,0,0a.21.21,0,0,1-.08,0,.42.42,0,0,0-.27,0,1.11,1.11,0,0,0-.45.31,2.41,2.41,0,0,0-.39.53,2.85,2.85,0,0,0-.16.3l0,.07a.3.3,0,0,0,0,.1s0,0,0,.07h-.57a4.49,4.49,0,0,1,.52-1,2.16,2.16,0,0,1,1.5-1,.87.87,0,0,1,.9.79A2.37,2.37,0,0,1,405.62,144.17Z" style="fill:#c7c7c7"></path><path d="M408.71,144.1a3.51,3.51,0,0,1-1.65,2.11c-.37.21-.48-.29-.11-.49a2.65,2.65,0,0,0,1.12-1.32c0-.09.06-.2.08-.29a1.86,1.86,0,0,0,0-1,.6.6,0,0,0-.23-.35l0,0s-.05,0-.05,0h-.08a.47.47,0,0,0-.28,0,1.05,1.05,0,0,0-.44.3,2.25,2.25,0,0,0-.39.54,2.69,2.69,0,0,0-.16.29l0,.07a.42.42,0,0,0,0,.1.21.21,0,0,0,0,.07h-.56a4.1,4.1,0,0,1,.52-1,2.17,2.17,0,0,1,1.5-1,.88.88,0,0,1,.9.79A2.26,2.26,0,0,1,408.71,144.1Z" style="fill:#c7c7c7"></path><path d="M411.81,144a3.53,3.53,0,0,1-1.65,2.1c-.37.21-.48-.28-.12-.48a2.61,2.61,0,0,0,1.12-1.33,1.52,1.52,0,0,0,.09-.28,1.9,1.9,0,0,0,0-1,.55.55,0,0,0-.23-.34l0,0,0,0h-.08a.55.55,0,0,0-.28,0,1.27,1.27,0,0,0-.45.3,3.12,3.12,0,0,0-.38.54c-.06.09-.11.19-.17.3l0,.06a.49.49,0,0,0,0,.11s0,0,0,.06l-.56,0a4.05,4.05,0,0,1,.51-1,2.13,2.13,0,0,1,1.5-1,.87.87,0,0,1,.91.79A2.27,2.27,0,0,1,411.81,144Z" style="fill:#c7c7c7"></path><path d="M414.91,144a3.5,3.5,0,0,1-1.65,2.1c-.37.21-.49-.28-.12-.48a2.57,2.57,0,0,0,1.12-1.33c0-.09.07-.19.09-.28a1.9,1.9,0,0,0,0-1,.67.67,0,0,0-.23-.34l0,0-.05,0H414a.46.46,0,0,0-.28,0,1,1,0,0,0-.45.3,2.36,2.36,0,0,0-.38.53c-.06.09-.11.2-.17.3l0,.07,0,.1s0,0,0,.07h-.56a4.05,4.05,0,0,1,.51-1,2.19,2.19,0,0,1,1.5-1,.89.89,0,0,1,.91.79A2.38,2.38,0,0,1,414.91,144Z" style="fill:#c7c7c7"></path><path d="M418,143.9a3.52,3.52,0,0,1-1.65,2.11c-.38.21-.49-.29-.12-.48a2.61,2.61,0,0,0,1.12-1.33,2.46,2.46,0,0,0,.09-.29,1.86,1.86,0,0,0,0-1,.66.66,0,0,0-.23-.35l0,0-.05,0h-.07a.45.45,0,0,0-.28,0,1.15,1.15,0,0,0-.45.3,2.2,2.2,0,0,0-.38.54,2.75,2.75,0,0,0-.17.29l0,.07a.31.31,0,0,0-.05.1.25.25,0,0,0,0,.07h-.56a4.24,4.24,0,0,1,.51-1,2.15,2.15,0,0,1,1.5-1,.86.86,0,0,1,.9.79A2.22,2.22,0,0,1,418,143.9Z" style="fill:#c7c7c7"></path><path d="M421.11,143.84a3.51,3.51,0,0,1-1.66,2.1c-.37.21-.48-.28-.11-.48a2.62,2.62,0,0,0,1.12-1.33c0-.09.07-.19.09-.28a1.89,1.89,0,0,0,0-1,.58.58,0,0,0-.23-.34l0,0s0,0-.05,0h-.07a.54.54,0,0,0-.28,0,1.27,1.27,0,0,0-.45.3,2.66,2.66,0,0,0-.38.54,2.14,2.14,0,0,0-.17.3l0,.07a.19.19,0,0,0-.05.1s0,0,0,.07h-.57a4.49,4.49,0,0,1,.52-1,2.13,2.13,0,0,1,1.5-1,.86.86,0,0,1,.9.79A2.37,2.37,0,0,1,421.11,143.84Z" style="fill:#c7c7c7"></path><path d="M424.21,143.77a3.52,3.52,0,0,1-1.66,2.1c-.37.21-.48-.28-.11-.48a2.6,2.6,0,0,0,1.12-1.32c0-.1.06-.2.08-.29a1.79,1.79,0,0,0,0-1,.61.61,0,0,0-.23-.34s0,0,0,0l-.05,0h-.08a.43.43,0,0,0-.27,0,1,1,0,0,0-.45.3,2.41,2.41,0,0,0-.39.53c-.06.1-.11.2-.16.3l0,.07a.42.42,0,0,0,0,.1s0,.05,0,.07h-.57a4.49,4.49,0,0,1,.52-1,2.19,2.19,0,0,1,1.5-1,.88.88,0,0,1,.9.79A2.37,2.37,0,0,1,424.21,143.77Z" style="fill:#c7c7c7"></path><path d="M427.3,143.7a3.48,3.48,0,0,1-1.65,2.11c-.37.21-.48-.28-.11-.48a2.71,2.71,0,0,0,1.12-1.33c0-.09.06-.19.08-.28a1.9,1.9,0,0,0,0-1,.6.6,0,0,0-.23-.35l0,0,0,0h-.08a.47.47,0,0,0-.28,0,1.05,1.05,0,0,0-.44.3,2.46,2.46,0,0,0-.39.54,2.69,2.69,0,0,0-.16.29l0,.07a.69.69,0,0,0,0,.1s0,0,0,.07h-.56a4.24,4.24,0,0,1,.52-1,2.11,2.11,0,0,1,1.5-1,.86.86,0,0,1,.9.79A2.22,2.22,0,0,1,427.3,143.7Z" style="fill:#c7c7c7"></path><path d="M430.4,143.64a3.53,3.53,0,0,1-1.65,2.1c-.37.21-.48-.28-.12-.48a2.57,2.57,0,0,0,1.12-1.33,1.52,1.52,0,0,0,.09-.28,1.9,1.9,0,0,0,0-1,.61.61,0,0,0-.23-.34l0,0,0,0h-.08a.54.54,0,0,0-.28,0,1.18,1.18,0,0,0-.45.31,2.72,2.72,0,0,0-.38.53c-.06.09-.11.2-.17.3l0,.07a.3.3,0,0,0,0,.1.15.15,0,0,0,0,.07h-.56a4.05,4.05,0,0,1,.51-1,2.16,2.16,0,0,1,1.5-1,.87.87,0,0,1,.91.79A2.26,2.26,0,0,1,430.4,143.64Z" style="fill:#c7c7c7"></path><path d="M433.5,143.57a3.55,3.55,0,0,1-1.65,2.11c-.38.21-.49-.29-.12-.49a2.55,2.55,0,0,0,1.12-1.32c0-.09.07-.2.09-.29a1.86,1.86,0,0,0,0-1,.66.66,0,0,0-.23-.35l0,0-.05,0h-.07a.46.46,0,0,0-.28,0,1.15,1.15,0,0,0-.45.3,2.2,2.2,0,0,0-.38.54c-.06.09-.11.19-.17.29l0,.07a.47.47,0,0,0-.05.1s0,0,0,.07h-.56a4.05,4.05,0,0,1,.51-1,2.19,2.19,0,0,1,1.5-1,.89.89,0,0,1,.91.79A2.37,2.37,0,0,1,433.5,143.57Z" style="fill:#c7c7c7"></path><path d="M436.6,143.51a3.53,3.53,0,0,1-1.65,2.1c-.38.21-.49-.28-.12-.48A2.61,2.61,0,0,0,436,143.8c0-.09.07-.19.09-.28a1.9,1.9,0,0,0,0-1,.6.6,0,0,0-.23-.34l0,0-.05,0h-.07a.54.54,0,0,0-.28,0,1.27,1.27,0,0,0-.45.3,2.66,2.66,0,0,0-.38.54,2.14,2.14,0,0,0-.17.3l0,.06a.27.27,0,0,0,0,.11s0,0,0,.06l-.56,0a4.05,4.05,0,0,1,.51-1,2.13,2.13,0,0,1,1.5-1,.86.86,0,0,1,.9.79A2.25,2.25,0,0,1,436.6,143.51Z" style="fill:#c7c7c7"></path><path d="M435.36,155.05c1.87,4.38,6.79,9.92,7.07,13.44a4,4,0,0,1-2.41,4.19s3.43,1.89,3.16,5.13c-.14,1.67-2.93,2.91-2.93,2.91s2.68,1.63,2.26,4.5c-.33,2.28-3.07,3.19-3.07,3.19s1.84,2.76.76,5c-2.21,4.5-22,3.72-24.78-3.7-1.3-3.46,3.53-3,3.53-3s-6.78-2.33-6.73-6.42,6.3-3.12,6.3-3.12-6.56-2.31-6.07-6.55c.5-4.4,6.58-2.36,6.58-2.36s-4.29-3.16-3.17-6.32c1.84-5.21,9.91,1.75,14.31.89l2.68-7.08Z" style="fill:#f7a9a0"></path><path d="M439.08,161.45c-1.4-4.3,4.05-9.32,3.29-13.63-1-5.82-7.74-.42-9.52,7.91l-.24,6.7Z" style="fill:#f7a9a0"></path><path d="M439,188.61a.06.06,0,0,1,0,.11,34.39,34.39,0,0,1-20.36-2c-.2-.09-.14-.46.11-.4A70.06,70.06,0,0,0,439,188.61Z" style="fill:#263238"></path><path d="M440.34,180.77c.08,0,.09.12,0,.14-6.79,1.33-15.37.47-22.07-3.59-.23-.14-.3-.49,0-.35C422.92,179.33,433.94,181.06,440.34,180.77Z" style="fill:#263238"></path><path d="M418.63,167.79c6.58,3.64,13.66,4.81,21.11,5,.1,0,.08.14,0,.16-3.66.92-8.4.33-12.05-.45A19.89,19.89,0,0,1,418.5,168C418.4,167.93,418.49,167.71,418.63,167.79Z" style="fill:#263238"></path><path d="M349,123.75c.4,1,4.23,7.71,9,7.71,3,0,2.28-10.32,2.28-10.32l.05-.65.7-9-11.2-5.1-1.61-.66s0,2.48,0,5.56v.44c0,.18,0,.34,0,.5,0,.47,0,.94,0,1.4s0,.71,0,1.08l0,1.12A59.4,59.4,0,0,0,349,123.75Z" style="fill:#f7a9a0"></path><path d="M348.16,111.28a18.12,18.12,0,0,0,12.14,9.21l.7-9-11.2-5.1-1.61-.66S348.16,108.2,348.16,111.28Z" style="fill:#263238"></path><path d="M373.42,100c-.4,15.85-9.95,17.4-13.36,17.31-3.11-.09-13.66-.77-14.89-16.58s6.27-20.63,13.37-20.81S373.83,84.1,373.42,100Z" style="fill:#f7a9a0"></path><path d="M369.64,96c-.37-.08-.7-.21-1.05-.32a1.73,1.73,0,0,1-1-.52.56.56,0,0,1,.06-.69,1.4,1.4,0,0,1,1.4-.21,2.05,2.05,0,0,1,1.22.83A.6.6,0,0,1,369.64,96Z" style="fill:#263238"></path><path d="M359.31,95.15a10,10,0,0,0,1.08-.14,1.82,1.82,0,0,0,1.09-.35.57.57,0,0,0,0-.69,1.4,1.4,0,0,0-1.35-.43,2.06,2.06,0,0,0-1.34.61A.6.6,0,0,0,359.31,95.15Z" style="fill:#263238"></path><path d="M361.24,99.33s-.09,0-.09.09c0,1.08-.24,2.31-1.24,2.61,0,0,0,.07,0,.06C361.12,102,361.39,100.36,361.24,99.33Z" style="fill:#263238"></path><path d="M360.34,98.15c-1.72-.24-2.06,3.23-.46,3.45S361.79,98.34,360.34,98.15Z" style="fill:#263238"></path><path d="M359.65,98.26c-.33.17-.66.49-1,.49s-.71-.4-.95-.77c0,0-.06,0-.06,0-.08.67.11,1.37.82,1.54s1.16-.39,1.39-1C359.86,98.39,359.77,98.2,359.65,98.26Z" style="fill:#263238"></path><path d="M367.23,99.73s.08.06.07.1c-.14,1.07-.13,2.32.8,2.78,0,0,0,.07,0,.06C366.92,102.38,366.92,100.72,367.23,99.73Z" style="fill:#263238"></path><path d="M368.31,98.71c1.74.05,1.51,3.52-.1,3.48S366.85,98.66,368.31,98.71Z" style="fill:#263238"></path><path d="M369,99c.26.2.51.56.84.6s.68-.31.95-.65c0,0,.05,0,.05,0,0,.67-.29,1.34-.94,1.43s-1-.52-1.09-1.19C368.81,99.08,368.91,98.9,369,99Z" style="fill:#263238"></path><path d="M360.58,107.9c.22.28.42.67.81.75a2.82,2.82,0,0,0,1.19-.1,0,0,0,0,1,0,.06,1.44,1.44,0,0,1-1.44.39,1.15,1.15,0,0,1-.7-1.07C360.46,107.87,360.55,107.86,360.58,107.9Z" style="fill:#263238"></path><path d="M365.41,104.39s.08,1.63,0,2.39c0,.07-.19.09-.45.08,0,0,0,0,0,0a3.62,3.62,0,0,1-3.39-1.65.08.08,0,0,1,.13-.09,5.4,5.4,0,0,0,3.21,1.22c.07-.2-.24-2.78-.12-2.78a6.86,6.86,0,0,1,1.69.54c-.08-3.39-.7-6.74-.73-10.12,0-.12.18-.14.2,0a54.73,54.73,0,0,1,1.25,10.87C367.21,105.25,365.7,104.55,365.41,104.39Z" style="fill:#263238"></path><path d="M364.51,106.41a3.92,3.92,0,0,1-1.61,1.14,1.7,1.7,0,0,1-1.07,0c-.76-.23-.75-.94-.58-1.54a4,4,0,0,1,.38-.91A5.06,5.06,0,0,0,364.51,106.41Z" style="fill:#263238"></path><path d="M362.9,107.55a1.7,1.7,0,0,1-1.07,0c-.76-.23-.75-.94-.58-1.54A1.82,1.82,0,0,1,362.9,107.55Z" style="fill:#ff9cbd"></path><path d="M345,98.41c1.74.23,7.13-3.59,8.91-11.82,0,0-2.11,7.28-2.89,8.26s3-2.15,4.55-8.78A27.53,27.53,0,0,0,361.74,91c3,1.51,4.91,1.86,5.18,1.68s-4.07-2.57-5-4.26c0,0,7.6,5.56,11.4,6.62.44.12,2.8-9-2.39-14s-15.48-2.76-18.51-.81c0,0-3.07-.17-7.19,3.6S343.18,98.15,345,98.41Z" style="fill:#263238"></path><path d="M347.88,100.08s-2.88-5.31-5.26-4.33-.58,8.4,1.93,9.67a2.68,2.68,0,0,0,3.73-1Z" style="fill:#f7a9a0"></path><path d="M343.19,97.86a0,0,0,0,0,0,.07c1.75.95,2.52,2.77,3,4.61a1.47,1.47,0,0,0-2.15-.65.05.05,0,0,0,0,.1,1.67,1.67,0,0,1,1.74.78,8,8,0,0,1,.69,1.55c.07.18.38.12.34-.07v0C347.13,101.87,345.68,98.38,343.19,97.86Z" style="fill:#263238"></path></g><g id="freepik--speech-bubble--inject-97"><path d="M206.87,78.14A20.4,20.4,0,0,1,172.78,91l-10.21,1.5,5.11-8.82a20.41,20.41,0,1,1,39.19-5.58Z" style="fill:#fff"></path><path d="M206.87,78.14a20.51,20.51,0,0,1-4.12,10.34,20.76,20.76,0,0,1-1.85,2.13,23.24,23.24,0,0,1-2.15,1.82,20.64,20.64,0,0,1-10.42,4,20.54,20.54,0,0,1-2.83.06,17.75,17.75,0,0,1-2.82-.3,20.55,20.55,0,0,1-10.1-5l.24.07-10.2,1.57-.74.11.38-.65,5.08-8.84,0,.35a20.61,20.61,0,1,1,39.56-5.73Zm0,0a20.18,20.18,0,0,0-23.14-22.09,20.27,20.27,0,0,0-8.43,3.33A21.23,21.23,0,0,0,169.2,66a20.06,20.06,0,0,0-2.59,8.64,20.33,20.33,0,0,0,1.44,8.89l.07.18-.1.17-5.14,8.8-.36-.54,10.22-1.43.14,0,.1.1a20.16,20.16,0,0,0,9.77,5,22.21,22.21,0,0,0,5.56.33,20,20,0,0,0,5.45-1.2,18.87,18.87,0,0,0,4.92-2.65,18,18,0,0,0,4-3.91A20.49,20.49,0,0,0,206.87,78.14Z" style="fill:#263238"></path><rect x="184.14" y="65.04" width="4.82" height="21.92" style="fill:#FFC727"></rect><rect x="184.14" y="65.04" width="4.82" height="21.92" transform="translate(110.55 262.54) rotate(-90)" style="fill:#FFC727"></rect></g></svg>