<svg xmlns="http://www.w3.org/2000/svg" viewBox="0 0 500 500"><g id="freepik--background-complete--inject-64"><rect x="80.81" y="128.74" width="105.97" height="335.84" style="fill:#f5f5f5"></rect><rect x="133.79" y="128.74" width="52.98" height="334.92" style="fill:#ebebeb"></rect><rect x="92.91" y="95.77" width="37.42" height="32.97" style="fill:#f5f5f5"></rect><rect x="121.41" y="95.77" width="8.92" height="32.97" style="fill:#ebebeb"></rect><polyline points="71.98 128.74 71.98 126.82 189.88 126.82 189.88 128.74" style="fill:#e0e0e0"></polyline><rect x="101.73" y="143.12" width="8.97" height="18.91" style="fill:#fafafa"></rect><path d="M133.79,169.46c0,.2-11.86.36-26.49.36s-26.49-.16-26.49-.36,11.86-.36,26.49-.36S133.79,169.26,133.79,169.46Z" style="fill:#e0e0e0"></path><rect x="155.17" y="143.12" width="8.97" height="18.91" style="fill:#e0e0e0"></rect><path d="M187.24,169.46c0,.2-11.86.36-26.49.36s-26.49-.16-26.49-.36,11.85-.36,26.49-.36S187.24,169.26,187.24,169.46Z" style="fill:#e0e0e0"></path><rect x="155.17" y="180.67" width="8.97" height="18.91" style="fill:#e0e0e0"></rect><path d="M187.24,207c0,.2-11.86.36-26.49.36s-26.49-.16-26.49-.36,11.85-.36,26.49-.36S187.24,206.81,187.24,207Z" style="fill:#e0e0e0"></path><rect x="155.17" y="219.36" width="8.97" height="18.91" style="fill:#e0e0e0"></rect><path d="M187.24,245.7c0,.19-11.86.36-26.49.36s-26.49-.17-26.49-.36,11.85-.37,26.49-.37S187.24,245.5,187.24,245.7Z" style="fill:#e0e0e0"></path><rect x="155.17" y="258.04" width="8.97" height="18.91" style="fill:#e0e0e0"></rect><path d="M187.24,284.38c0,.2-11.86.36-26.49.36s-26.49-.16-26.49-.36,11.85-.36,26.49-.36S187.24,284.18,187.24,284.38Z" style="fill:#e0e0e0"></path><rect x="155.17" y="295.62" width="8.97" height="18.91" style="fill:#e0e0e0"></rect><path d="M187.24,322c0,.2-11.86.36-26.49.36s-26.49-.16-26.49-.36,11.85-.36,26.49-.36S187.24,321.76,187.24,322Z" style="fill:#e0e0e0"></path><rect x="155.17" y="333.35" width="8.97" height="18.91" style="fill:#e0e0e0"></rect><rect x="155.17" y="371.57" width="8.97" height="18.91" style="fill:#e0e0e0"></rect><path d="M187.24,359.69c0,.2-11.86.36-26.49.36s-26.49-.16-26.49-.36,11.85-.36,26.49-.36S187.24,359.49,187.24,359.69Z" style="fill:#e0e0e0"></path><rect x="101.73" y="181.25" width="8.97" height="18.91" style="fill:#fafafa"></rect><path d="M133.79,207.58c0,.2-11.86.37-26.49.37s-26.49-.17-26.49-.37,11.86-.36,26.49-.36S133.79,207.38,133.79,207.58Z" style="fill:#e0e0e0"></path><rect x="101.73" y="219.37" width="8.97" height="18.91" style="fill:#fafafa"></rect><path d="M133.79,245.71c0,.2-11.86.36-26.49.36s-26.49-.16-26.49-.36,11.86-.36,26.49-.36S133.79,245.51,133.79,245.71Z" style="fill:#e0e0e0"></path><rect x="101.73" y="257.5" width="8.97" height="18.91" style="fill:#fafafa"></rect><path d="M133.79,283.83c0,.2-11.86.36-26.49.36s-26.49-.16-26.49-.36,11.86-.36,26.49-.36S133.79,283.63,133.79,283.83Z" style="fill:#e0e0e0"></path><rect x="101.73" y="295.62" width="8.97" height="18.91" style="fill:#fafafa"></rect><path d="M133.79,322c0,.2-11.86.36-26.49.36s-26.49-.16-26.49-.36,11.86-.36,26.49-.36S133.79,321.76,133.79,322Z" style="fill:#e0e0e0"></path><rect x="101.73" y="333.74" width="8.97" height="18.91" style="fill:#fafafa"></rect><path d="M133.79,360.08c0,.2-11.86.36-26.49.36s-26.49-.16-26.49-.36,11.86-.36,26.49-.36S133.79,359.88,133.79,360.08Z" style="fill:#e0e0e0"></path><rect x="101.73" y="371.87" width="8.97" height="18.91" style="fill:#fafafa"></rect><polygon points="157.62 463.75 35.16 463.75 34.62 270.2 157.09 270.2 157.62 463.75" style="fill:#ebebeb"></polygon><rect x="95.86" y="270.2" width="61.23" height="193.55" style="fill:#e0e0e0"></rect><rect x="48.61" y="232.1" width="43.25" height="38.1" style="fill:#ebebeb"></rect><rect x="81.55" y="232.1" width="10.31" height="38.1" style="fill:#e0e0e0"></rect><rect x="24.42" y="267.98" width="136.25" height="2.22" style="fill:#e0e0e0"></rect><rect x="58.8" y="286.82" width="10.37" height="21.86" style="fill:#fff"></rect><path d="M95.86,317.26c0,.23-13.71.42-30.62.42s-30.62-.19-30.62-.42,13.71-.42,30.62-.42S95.86,317,95.86,317.26Z" style="fill:#e0e0e0"></path><rect x="120.56" y="286.82" width="10.37" height="21.86" style="fill:#f5f5f5"></rect><path d="M157.62,317.26c0,.23-13.71.42-30.61.42s-30.62-.19-30.62-.42,13.71-.42,30.62-.42S157.62,317,157.62,317.26Z" style="fill:#ebebeb"></path><rect x="120.56" y="330.22" width="10.37" height="21.86" style="fill:#f5f5f5"></rect><path d="M157.62,360.65c0,.24-13.71.42-30.61.42s-30.62-.18-30.62-.42,13.71-.41,30.62-.41S157.62,360.42,157.62,360.65Z" style="fill:#ebebeb"></path><rect x="120.56" y="374.92" width="10.37" height="21.86" style="fill:#f5f5f5"></rect><path d="M157.62,405.36c0,.23-13.71.42-30.61.42s-30.62-.19-30.62-.42,13.71-.42,30.62-.42S157.62,405.13,157.62,405.36Z" style="fill:#ebebeb"></path><rect x="120.56" y="419.63" width="10.37" height="21.86" style="fill:#f5f5f5"></rect><path d="M157.62,450.07c0,.23-13.71.41-30.61.41s-30.62-.18-30.62-.41,13.71-.42,30.62-.42S157.62,449.84,157.62,450.07Z" style="fill:#ebebeb"></path><rect x="58.8" y="330.88" width="10.37" height="21.86" style="fill:#fff"></rect><path d="M95.86,361.32c0,.23-13.71.41-30.62.41s-30.62-.18-30.62-.41,13.71-.42,30.62-.42S95.86,361.09,95.86,361.32Z" style="fill:#e0e0e0"></path><rect x="58.8" y="374.94" width="10.37" height="21.86" style="fill:#fff"></rect><path d="M95.86,405.38c0,.23-13.71.41-30.62.41s-30.62-.18-30.62-.41S48.33,405,65.24,405,95.86,405.15,95.86,405.38Z" style="fill:#e0e0e0"></path><rect x="58.8" y="419" width="10.37" height="21.86" style="fill:#fff"></rect><path d="M95.86,449.43c0,.24-13.71.42-30.62.42s-30.62-.18-30.62-.42S48.33,449,65.24,449,95.86,449.2,95.86,449.43Z" style="fill:#e0e0e0"></path><rect x="270.3" y="303.66" width="121.5" height="160.25" style="fill:#ebebeb"></rect><rect x="334.82" y="303.66" width="56.97" height="160.25" style="fill:#e0e0e0"></rect><rect x="295.77" y="325.35" width="10.92" height="26.54" style="fill:#f5f5f5"></rect><rect x="295.77" y="429.23" width="10.92" height="26.54" style="fill:#f5f5f5"></rect><path d="M334.82,362.31c0,.3-14.44.54-32.26.54s-32.26-.24-32.26-.54,14.44-.54,32.26-.54S334.82,362,334.82,362.31Z" style="fill:#f5f5f5"></path><rect x="295.77" y="377.69" width="10.92" height="26.54" style="fill:#f5f5f5"></rect><path d="M334.82,414.64c0,.3-14.44.54-32.26.54s-32.26-.24-32.26-.54,14.44-.54,32.26-.54S334.82,414.35,334.82,414.64Z" style="fill:#f5f5f5"></path><rect x="346.92" y="325.35" width="10.92" height="26.54" style="fill:#f5f5f5"></rect><rect x="370.62" y="325.35" width="10.92" height="26.54" style="fill:#f5f5f5"></rect><rect x="346.92" y="375.72" width="10.92" height="26.54" style="fill:#f5f5f5"></rect><rect x="370.62" y="375.72" width="10.92" height="26.54" style="fill:#f5f5f5"></rect><rect x="346.92" y="426.08" width="10.92" height="26.54" style="fill:#f5f5f5"></rect><rect x="370.62" y="426.08" width="10.92" height="26.54" style="fill:#f5f5f5"></rect><rect x="261.16" y="298.08" width="139.76" height="5.78" style="fill:#e0e0e0"></rect><path d="M392.64,304.4c0,.3-27.16.54-60.65.54s-60.65-.24-60.65-.54,27.15-.54,60.65-.54S392.64,304.1,392.64,304.4Z" style="fill:#ebebeb"></path><path d="M390.74,70.51c.59-4.28-5.45-7.8-10-8.16-2.16-.18-4.41.15-6.46-.56-4.44-1.55-6.21-7.29-10.54-9.11-3.24-1.37-7-.15-10.11,1.43s-6.24,3.57-9.75,3.79c-3.05.2-6.37-.93-9,.56-2,1.11-3,3.4-4.86,4.75s-4.14,1.6-6.36,1.73-4.53.14-6.56,1.07-3.7,3.07-3.28,5.26Z" style="fill:#ebebeb"></path><path d="M476.7,120.08c.89-6.43-8.19-11.72-15-12.27-3.25-.27-6.63.23-9.71-.84-6.67-2.33-9.34-11-15.85-13.7-4.87-2-10.48-.22-15.2,2.15s-9.38,5.37-14.65,5.7c-4.59.3-9.57-1.4-13.59.84-3,1.67-4.55,5.11-7.31,7.15s-6.22,2.41-9.56,2.59-6.81.22-9.86,1.61-5.56,4.62-4.93,7.91Z" style="fill:#f5f5f5"></path><path d="M96.08,58.83c.45-3.27-4.16-5.95-7.63-6.23-1.65-.14-3.37.12-4.93-.43-3.39-1.18-4.75-5.57-8.06-7-2.48-1.05-5.32-.12-7.72,1.09S63,49,60.28,49.2c-2.33.15-4.86-.72-6.9.42-1.52.85-2.32,2.6-3.72,3.64a8.94,8.94,0,0,1-4.86,1.32,13.83,13.83,0,0,0-5,.81c-1.55.71-2.83,2.35-2.51,4Z" style="fill:#f5f5f5"></path></g><g id="freepik--Floor--inject-64"><path d="M470.18,464.48c0,.15-97.24.26-217.17.26s-217.19-.11-217.19-.26,97.22-.26,217.19-.26S470.18,464.34,470.18,464.48Z" style="fill:#263238"></path></g><g id="freepik--Plant--inject-64"><path d="M76.26,445c.73-2.85-1.13-5.7-3.22-7.76s-4.58-3.91-5.67-6.63c-1.76-4.42.61-10.13-2.4-13.82-1.76-2.16-4.93-2.89-6.5-5.2a11.89,11.89,0,0,1-1.41-4.14,42.06,42.06,0,0,0-10.45-19.56,36.4,36.4,0,0,0,4.1,18.85c1.21,2.32,2.71,4.57,3.11,7.16.66,4.2-1.69,8.52-.66,12.64,1.18,4.71,6.48,7.87,6.73,12.72.21,4.1-3.36,7.7-3.1,11.8a11.18,11.18,0,0,0,1.83,4.87c3.17,5.27,7.83,8.9,14.89,8.78l8.65.31Z" style="fill:#407BFF"></path><g style="opacity:0.30000000000000004"><path d="M76.26,445c.73-2.85-1.13-5.7-3.22-7.76s-4.58-3.91-5.67-6.63c-1.76-4.42.61-10.13-2.4-13.82-1.76-2.16-4.93-2.89-6.5-5.2a11.89,11.89,0,0,1-1.41-4.14,42.06,42.06,0,0,0-10.45-19.56,36.4,36.4,0,0,0,4.1,18.85c1.21,2.32,2.71,4.57,3.11,7.16.66,4.2-1.69,8.52-.66,12.64,1.18,4.71,6.48,7.87,6.73,12.72.21,4.1-3.36,7.7-3.1,11.8a11.18,11.18,0,0,0,1.83,4.87c3.17,5.27,7.83,8.9,14.89,8.78l8.65.31Z"></path></g><path d="M83.91,465.21a7,7,0,0,0,2.38,0,14.06,14.06,0,0,0,2.81-.71,11.68,11.68,0,0,0,3.47-1.9,4.76,4.76,0,0,0,1.43-1.9,9.06,9.06,0,0,0,.41-2.59,27.13,27.13,0,0,1,.2-2.79,7.65,7.65,0,0,1,1.06-2.78c1-1.8,2.71-3.49,3.26-5.92s.17-5-.24-7.59-.79-5.42.21-8.12,2.82-5.15,3.77-8.2.5-6.39.7-9.66a12.77,12.77,0,0,1,1.13-4.8c.7-1.53,1.67-3,2.43-4.59,1.53-3.26,1.8-6.95,2.22-10.57.21-1.82.42-3.67.62-5.53a27.27,27.27,0,0,1,1-5.53,48.64,48.64,0,0,1,2.06-5.35,17.86,17.86,0,0,0,1-2.8,27.58,27.58,0,0,0,.28-3,36.38,36.38,0,0,0-.23-6c-.24-2-.6-4-.81-6,0-.11,0-.23,0-.34l-.05-.4-.35.18a13.44,13.44,0,0,0-4.66,3.93,21.08,21.08,0,0,0-2.86,5.27c-1.44,3.72-2,7.61-2.69,11.33a30.91,30.91,0,0,1-3.55,10.46c-.95,1.54-2.1,2.94-3.1,4.45a12.31,12.31,0,0,0-2.15,4.93c-.51,3.66,1.5,6.87,1.08,10.11a11.16,11.16,0,0,1-1.57,4.49c-.79,1.38-1.71,2.66-2.59,3.95a25.87,25.87,0,0,0-2.32,4,12.62,12.62,0,0,0-1.06,4.34c-.21,2.91.2,5.68,0,8.29A19.16,19.16,0,0,1,85,441c-1,2.13-2.21,4.06-3.18,5.92a29.89,29.89,0,0,0-1.31,2.76,13,13,0,0,0-.76,2.73,17.16,17.16,0,0,0-.07,4.94,12.44,12.44,0,0,0,2.48,6.3,5.79,5.79,0,0,0,.7.75,3.33,3.33,0,0,0,.57.49l.49.34a10.82,10.82,0,0,1-1.67-1.65,12.5,12.5,0,0,1-2.35-6.26,16.71,16.71,0,0,1,.11-4.86,13.58,13.58,0,0,1,.76-2.67c.37-.9.83-1.8,1.32-2.72,1-1.85,2.16-3.77,3.23-5.91a19.36,19.36,0,0,0,2.21-7.23c.23-2.67-.18-5.45,0-8.3a12.25,12.25,0,0,1,1-4.19,25.55,25.55,0,0,1,2.29-3.91c.88-1.28,1.81-2.57,2.62-4a11.55,11.55,0,0,0,1.65-4.67c.42-3.45-1.58-6.69-1.06-10.09a11.66,11.66,0,0,1,2.07-4.71c1-1.48,2.14-2.88,3.12-4.46A31.43,31.43,0,0,0,102.93,379c.74-3.74,1.26-7.59,2.68-11.23a20.8,20.8,0,0,1,2.78-5.14,12.86,12.86,0,0,1,4.46-3.76l-.39-.22c0,.11,0,.23,0,.35.21,2,.57,4,.81,6a35.43,35.43,0,0,1,.23,5.9c-.06,1-.12,2-.27,2.89a17.36,17.36,0,0,1-1,2.69,50.1,50.1,0,0,0-2.09,5.42,27.46,27.46,0,0,0-1,5.62q-.31,2.79-.61,5.53c-.42,3.63-.69,7.27-2.17,10.41-.73,1.57-1.7,3-2.42,4.6a13.46,13.46,0,0,0-1.16,5c-.18,3.34.25,6.6-.65,9.56s-2.79,5.4-3.74,8.19-.6,5.74-.18,8.32.83,5.14.28,7.44-2.15,4-3.19,5.85a7.93,7.93,0,0,0-1.07,2.89,26,26,0,0,0-.19,2.83,8.77,8.77,0,0,1-.36,2.52,4.85,4.85,0,0,1-1.35,1.82,12.18,12.18,0,0,1-3.38,1.91,15,15,0,0,1-2.78.75,10.74,10.74,0,0,1-1.75.17Z" style="fill:#263238"></path><path d="M111.24,363.31a.91.91,0,0,0-.08.26c0,.21-.12.47-.19.78-.17.68-.38,1.71-.7,3s-1.13,2.73-1.8,4.51a64.72,64.72,0,0,0-2,6.14c-.66,2.31-1.25,4.87-1.86,7.61a32,32,0,0,1-2.77,8.45c-.71,1.41-1.51,2.83-2.14,4.38a20.7,20.7,0,0,0-1.25,5,99.28,99.28,0,0,1-1.86,10.46c-1.73,7.09-3.39,13.84-4.89,20l-4.1,16.3c-1.14,4.61-2.06,8.36-2.72,11-.3,1.27-.54,2.27-.71,3-.07.32-.12.57-.17.78a.8.8,0,0,0,0,.27A1.09,1.09,0,0,0,84,465l.22-.76.81-3c.7-2.63,1.68-6.36,2.89-10.95S90.56,440.1,92.15,434s3.18-12.9,4.93-20a97.62,97.62,0,0,0,1.86-10.51,20.18,20.18,0,0,1,1.2-4.84c.61-1.51,1.4-2.93,2.11-4.35a32.41,32.41,0,0,0,2.76-8.58c.59-2.75,1.15-5.3,1.78-7.6s1.3-4.36,2-6.13,1.4-3.25,1.72-4.58.46-2.33.6-3c0-.32.1-.58.13-.79A1,1,0,0,0,111.24,363.31Z" style="fill:#263238"></path><path d="M85.44,465.24c5.65-3.36,7.27-13.55,4.91-19.69s-6.48-11.74-7.12-18.28c-.49-5,1.16-10.19,0-15.11-1.58-6.63-8.06-11.77-8-18.58,0-3.83,2.22-7.43,2-11.25-.21-4.69-3.81-8.41-6-12.54-3.41-6.32-3.63-13.79-4.8-20.88s-3.86-14.68-10.15-18.16c-.92,6-2.51,10.14-2,18.29.18,2.93,3.58,8.53,4,14.95.28,3.83.47,7.67.7,11.51s.47,7.54,1.81,11c1,2.68,2.68,5.11,3.44,7.87,1.43,5.2-.45,10.84.71,16.11,1,4.46,4.07,8.3,4.7,12.83.88,6.36-3.23,13-1.13,19,1,3,3.53,5.43,4.23,8.54.54,2.41,0,5,.44,7.38.8,3.91,8.24,6.94,12.22,6.7" style="fill:#407BFF"></path><path d="M57.85,336.72a1.45,1.45,0,0,0,0,.34l.12,1c.13.87.28,2.15.57,3.8s1.17,3.52,1.86,5.78,1.43,4.83,2.07,7.73,1.18,6.11,1.75,9.56a39.9,39.9,0,0,0,2.89,10.81c.8,1.81,1.69,3.62,2.35,5.54a24.42,24.42,0,0,1,1.19,6.11,124.9,124.9,0,0,0,1.66,13.16l4.88,25.13c1.58,7.7,3,14.64,4.21,20.48s2.19,10.5,2.88,13.79c.34,1.6.62,2.85.81,3.75.09.4.17.72.22,1a1.89,1.89,0,0,0,.1.33,2,2,0,0,0,0-.34c0-.25-.1-.58-.17-1-.17-.9-.41-2.16-.71-3.77-.65-3.3-1.57-8-2.71-13.83s-2.55-12.79-4.09-20.5-3.12-16.21-4.83-25.13a123.67,123.67,0,0,1-1.66-13.11A25.22,25.22,0,0,0,70,381.1c-.68-2-1.58-3.78-2.38-5.57a40.2,40.2,0,0,1-2.91-10.68c-.58-3.45-1.15-6.67-1.82-9.57s-1.41-5.51-2.16-7.75-1.6-4.11-1.94-5.73-.5-2.91-.67-3.77c-.07-.4-.13-.73-.18-1A1.3,1.3,0,0,0,57.85,336.72Z" style="fill:#263238"></path></g></svg>
