<svg xmlns="http://www.w3.org/2000/svg" viewBox="0 0 500 500"><g id="freepik--background-complete--inject-64"><rect x="80.81" y="128.74" width="105.97" height="335.84" style="fill:#f5f5f5"></rect><rect x="133.79" y="128.74" width="52.98" height="334.92" style="fill:#ebebeb"></rect><rect x="92.91" y="95.77" width="37.42" height="32.97" style="fill:#f5f5f5"></rect><rect x="121.41" y="95.77" width="8.92" height="32.97" style="fill:#ebebeb"></rect><polyline points="71.98 128.74 71.98 126.82 189.88 126.82 189.88 128.74" style="fill:#e0e0e0"></polyline><rect x="101.73" y="143.12" width="8.97" height="18.91" style="fill:#fafafa"></rect><path d="M133.79,169.46c0,.2-11.86.36-26.49.36s-26.49-.16-26.49-.36,11.86-.36,26.49-.36S133.79,169.26,133.79,169.46Z" style="fill:#e0e0e0"></path><rect x="155.17" y="143.12" width="8.97" height="18.91" style="fill:#e0e0e0"></rect><path d="M187.24,169.46c0,.2-11.86.36-26.49.36s-26.49-.16-26.49-.36,11.85-.36,26.49-.36S187.24,169.26,187.24,169.46Z" style="fill:#e0e0e0"></path><rect x="155.17" y="180.67" width="8.97" height="18.91" style="fill:#e0e0e0"></rect><path d="M187.24,207c0,.2-11.86.36-26.49.36s-26.49-.16-26.49-.36,11.85-.36,26.49-.36S187.24,206.81,187.24,207Z" style="fill:#e0e0e0"></path><rect x="155.17" y="219.36" width="8.97" height="18.91" style="fill:#e0e0e0"></rect><path d="M187.24,245.7c0,.19-11.86.36-26.49.36s-26.49-.17-26.49-.36,11.85-.37,26.49-.37S187.24,245.5,187.24,245.7Z" style="fill:#e0e0e0"></path><rect x="155.17" y="258.04" width="8.97" height="18.91" style="fill:#e0e0e0"></rect><path d="M187.24,284.38c0,.2-11.86.36-26.49.36s-26.49-.16-26.49-.36,11.85-.36,26.49-.36S187.24,284.18,187.24,284.38Z" style="fill:#e0e0e0"></path><rect x="155.17" y="295.62" width="8.97" height="18.91" style="fill:#e0e0e0"></rect><path d="M187.24,322c0,.2-11.86.36-26.49.36s-26.49-.16-26.49-.36,11.85-.36,26.49-.36S187.24,321.76,187.24,322Z" style="fill:#e0e0e0"></path><rect x="155.17" y="333.35" width="8.97" height="18.91" style="fill:#e0e0e0"></rect><rect x="155.17" y="371.57" width="8.97" height="18.91" style="fill:#e0e0e0"></rect><path d="M187.24,359.69c0,.2-11.86.36-26.49.36s-26.49-.16-26.49-.36,11.85-.36,26.49-.36S187.24,359.49,187.24,359.69Z" style="fill:#e0e0e0"></path><rect x="101.73" y="181.25" width="8.97" height="18.91" style="fill:#fafafa"></rect><path d="M133.79,207.58c0,.2-11.86.37-26.49.37s-26.49-.17-26.49-.37,11.86-.36,26.49-.36S133.79,207.38,133.79,207.58Z" style="fill:#e0e0e0"></path><rect x="101.73" y="219.37" width="8.97" height="18.91" style="fill:#fafafa"></rect><path d="M133.79,245.71c0,.2-11.86.36-26.49.36s-26.49-.16-26.49-.36,11.86-.36,26.49-.36S133.79,245.51,133.79,245.71Z" style="fill:#e0e0e0"></path><rect x="101.73" y="257.5" width="8.97" height="18.91" style="fill:#fafafa"></rect><path d="M133.79,283.83c0,.2-11.86.36-26.49.36s-26.49-.16-26.49-.36,11.86-.36,26.49-.36S133.79,283.63,133.79,283.83Z" style="fill:#e0e0e0"></path><rect x="101.73" y="295.62" width="8.97" height="18.91" style="fill:#fafafa"></rect><path d="M133.79,322c0,.2-11.86.36-26.49.36s-26.49-.16-26.49-.36,11.86-.36,26.49-.36S133.79,321.76,133.79,322Z" style="fill:#e0e0e0"></path><rect x="101.73" y="333.74" width="8.97" height="18.91" style="fill:#fafafa"></rect><path d="M133.79,360.08c0,.2-11.86.36-26.49.36s-26.49-.16-26.49-.36,11.86-.36,26.49-.36S133.79,359.88,133.79,360.08Z" style="fill:#e0e0e0"></path><rect x="101.73" y="371.87" width="8.97" height="18.91" style="fill:#fafafa"></rect><polygon points="157.62 463.75 35.16 463.75 34.62 270.2 157.09 270.2 157.62 463.75" style="fill:#ebebeb"></polygon><rect x="95.86" y="270.2" width="61.23" height="193.55" style="fill:#e0e0e0"></rect><rect x="48.61" y="232.1" width="43.25" height="38.1" style="fill:#ebebeb"></rect><rect x="81.55" y="232.1" width="10.31" height="38.1" style="fill:#e0e0e0"></rect><rect x="24.42" y="267.98" width="136.25" height="2.22" style="fill:#e0e0e0"></rect><rect x="58.8" y="286.82" width="10.37" height="21.86" style="fill:#fff"></rect><path d="M95.86,317.26c0,.23-13.71.42-30.62.42s-30.62-.19-30.62-.42,13.71-.42,30.62-.42S95.86,317,95.86,317.26Z" style="fill:#e0e0e0"></path><rect x="120.56" y="286.82" width="10.37" height="21.86" style="fill:#f5f5f5"></rect><path d="M157.62,317.26c0,.23-13.71.42-30.61.42s-30.62-.19-30.62-.42,13.71-.42,30.62-.42S157.62,317,157.62,317.26Z" style="fill:#ebebeb"></path><rect x="120.56" y="330.22" width="10.37" height="21.86" style="fill:#f5f5f5"></rect><path d="M157.62,360.65c0,.24-13.71.42-30.61.42s-30.62-.18-30.62-.42,13.71-.41,30.62-.41S157.62,360.42,157.62,360.65Z" style="fill:#ebebeb"></path><rect x="120.56" y="374.92" width="10.37" height="21.86" style="fill:#f5f5f5"></rect><path d="M157.62,405.36c0,.23-13.71.42-30.61.42s-30.62-.19-30.62-.42,13.71-.42,30.62-.42S157.62,405.13,157.62,405.36Z" style="fill:#ebebeb"></path><rect x="120.56" y="419.63" width="10.37" height="21.86" style="fill:#f5f5f5"></rect><path d="M157.62,450.07c0,.23-13.71.41-30.61.41s-30.62-.18-30.62-.41,13.71-.42,30.62-.42S157.62,449.84,157.62,450.07Z" style="fill:#ebebeb"></path><rect x="58.8" y="330.88" width="10.37" height="21.86" style="fill:#fff"></rect><path d="M95.86,361.32c0,.23-13.71.41-30.62.41s-30.62-.18-30.62-.41,13.71-.42,30.62-.42S95.86,361.09,95.86,361.32Z" style="fill:#e0e0e0"></path><rect x="58.8" y="374.94" width="10.37" height="21.86" style="fill:#fff"></rect><path d="M95.86,405.38c0,.23-13.71.41-30.62.41s-30.62-.18-30.62-.41S48.33,405,65.24,405,95.86,405.15,95.86,405.38Z" style="fill:#e0e0e0"></path><rect x="58.8" y="419" width="10.37" height="21.86" style="fill:#fff"></rect><path d="M95.86,449.43c0,.24-13.71.42-30.62.42s-30.62-.18-30.62-.42S48.33,449,65.24,449,95.86,449.2,95.86,449.43Z" style="fill:#e0e0e0"></path><rect x="270.3" y="303.66" width="121.5" height="160.25" style="fill:#ebebeb"></rect><rect x="334.82" y="303.66" width="56.97" height="160.25" style="fill:#e0e0e0"></rect><rect x="295.77" y="325.35" width="10.92" height="26.54" style="fill:#f5f5f5"></rect><rect x="295.77" y="429.23" width="10.92" height="26.54" style="fill:#f5f5f5"></rect><path d="M334.82,362.31c0,.3-14.44.54-32.26.54s-32.26-.24-32.26-.54,14.44-.54,32.26-.54S334.82,362,334.82,362.31Z" style="fill:#f5f5f5"></path><rect x="295.77" y="377.69" width="10.92" height="26.54" style="fill:#f5f5f5"></rect><path d="M334.82,414.64c0,.3-14.44.54-32.26.54s-32.26-.24-32.26-.54,14.44-.54,32.26-.54S334.82,414.35,334.82,414.64Z" style="fill:#f5f5f5"></path><rect x="346.92" y="325.35" width="10.92" height="26.54" style="fill:#f5f5f5"></rect><rect x="370.62" y="325.35" width="10.92" height="26.54" style="fill:#f5f5f5"></rect><rect x="346.92" y="375.72" width="10.92" height="26.54" style="fill:#f5f5f5"></rect><rect x="370.62" y="375.72" width="10.92" height="26.54" style="fill:#f5f5f5"></rect><rect x="346.92" y="426.08" width="10.92" height="26.54" style="fill:#f5f5f5"></rect><rect x="370.62" y="426.08" width="10.92" height="26.54" style="fill:#f5f5f5"></rect><rect x="261.16" y="298.08" width="139.76" height="5.78" style="fill:#e0e0e0"></rect><path d="M392.64,304.4c0,.3-27.16.54-60.65.54s-60.65-.24-60.65-.54,27.15-.54,60.65-.54S392.64,304.1,392.64,304.4Z" style="fill:#ebebeb"></path><path d="M390.74,70.51c.59-4.28-5.45-7.8-10-8.16-2.16-.18-4.41.15-6.46-.56-4.44-1.55-6.21-7.29-10.54-9.11-3.24-1.37-7-.15-10.11,1.43s-6.24,3.57-9.75,3.79c-3.05.2-6.37-.93-9,.56-2,1.11-3,3.4-4.86,4.75s-4.14,1.6-6.36,1.73-4.53.14-6.56,1.07-3.7,3.07-3.28,5.26Z" style="fill:#ebebeb"></path><path d="M476.7,120.08c.89-6.43-8.19-11.72-15-12.27-3.25-.27-6.63.23-9.71-.84-6.67-2.33-9.34-11-15.85-13.7-4.87-2-10.48-.22-15.2,2.15s-9.38,5.37-14.65,5.7c-4.59.3-9.57-1.4-13.59.84-3,1.67-4.55,5.11-7.31,7.15s-6.22,2.41-9.56,2.59-6.81.22-9.86,1.61-5.56,4.62-4.93,7.91Z" style="fill:#f5f5f5"></path><path d="M96.08,58.83c.45-3.27-4.16-5.95-7.63-6.23-1.65-.14-3.37.12-4.93-.43-3.39-1.18-4.75-5.57-8.06-7-2.48-1.05-5.32-.12-7.72,1.09S63,49,60.28,49.2c-2.33.15-4.86-.72-6.9.42-1.52.85-2.32,2.6-3.72,3.64a8.94,8.94,0,0,1-4.86,1.32,13.83,13.83,0,0,0-5,.81c-1.55.71-2.83,2.35-2.51,4Z" style="fill:#f5f5f5"></path></g><g id="freepik--Floor--inject-64"><path d="M470.18,464.48c0,.15-97.24.26-217.17.26s-217.19-.11-217.19-.26,97.22-.26,217.19-.26S470.18,464.34,470.18,464.48Z" style="fill:#263238"></path></g><g id="freepik--Character--inject-64"><path d="M447.39,203.76H436.7l-16.24,46.61,24.78,36.7c7.68,1.61,16.65,2.91,22.52-2.29,4.83-4.28,5.66-11.43,5.91-17.89a257,257,0,0,0-.67-31.15c-.64-7.78-1.74-15.81-5.89-22.43S455,201.9,447.39,203.76" style="fill:#455a64"></path><path d="M457.68,287.77a8.69,8.69,0,0,0,.89-.18,5,5,0,0,0,2.17-1.33,7.33,7.33,0,0,0,1.87-3.56,34.59,34.59,0,0,0,.63-5.41,307.94,307.94,0,0,0,.64-31.68,159.3,159.3,0,0,0-1.31-17.38,53.89,53.89,0,0,0-3.73-13.67,37.43,37.43,0,0,0-4.83-8.24c-.71-.89-1.29-1.55-1.69-2l-.45-.51a1.14,1.14,0,0,1-.15-.18s.07,0,.19.15l.49.47c.43.42,1,1.06,1.76,1.93a35.94,35.94,0,0,1,5,8.22A53.4,53.4,0,0,1,463,228.16a150.7,150.7,0,0,1,1.36,17.43,275.31,275.31,0,0,1-.8,31.73,32.22,32.22,0,0,1-.71,5.46,7.49,7.49,0,0,1-2,3.63,5,5,0,0,1-2.28,1.28A2.79,2.79,0,0,1,457.68,287.77Z" style="fill:#263238"></path><path d="M474,258.71a8.24,8.24,0,0,1-4.65,1.67,8.33,8.33,0,0,1-4.89-.77,25.67,25.67,0,0,0,4.84.25A27.32,27.32,0,0,0,474,258.71Z" style="fill:#263238"></path><path d="M473.35,235.64a10.38,10.38,0,0,1-4.71,1.84,10.17,10.17,0,0,1-5.06-.12c0-.16,2.27.1,5-.39S473.28,235.49,473.35,235.64Z" style="fill:#263238"></path><path d="M448.38,203.56s-1.33-5.24,1.13-5.55,9.59,2.83,8.5,5.63a22.25,22.25,0,0,1-2.44,4.62l-1-1.36s1.7-2.1,1.5-3.54-4.93-3.91-5.65-2.47a6.8,6.8,0,0,0-.72,2.75Z" style="fill:#263238"></path><path d="M360.11,210.16l-42.73.83-6.91-.6s-15.63-.44-17.13-.67c-1.73-.27-2.28.5-2.33,1.14-.09,1,1,1.9,2.5,2.18.51.09,8.63,1.28,8.63,1.28a19.85,19.85,0,0,0-2.43,1.23c-1.7,1-3,3.65-3.36,6.55s-.2,3.75.92,3.94a1.46,1.46,0,0,0,1.18-.4,4.08,4.08,0,0,0,1.1-2.14c.95-5.53,3.15-5.17,3.15-5.17l1,0s-2.5,2.6-2,5a2.58,2.58,0,0,0,.42,1,3.66,3.66,0,0,0,4.91,4c.58-.22,1.16-.7,1.13-1.32a1.79,1.79,0,0,0-.37-.89,4,4,0,0,1-.24-.46l2.56-.14s5.74-.61,8.27-.59l40.15,1.33c5.71.6,11.9-.61,12.4-6.33h0C371.43,213.61,366.36,209.82,360.11,210.16Z" style="fill:#ffbe9d"></path><path d="M316.62,212.24a2.13,2.13,0,0,1-1.48,2c-.82.35-1.74.4-2.58.68-2.53.84-4.1,3.59-6.67,4.31-.35.1-.83.11-1-.22s.06-.66.27-.93l5.41-7" style="fill:#ffbe9d"></path><path d="M310.57,211.1a3.51,3.51,0,0,0-.67.69c-.4.47-1,1.16-1.65,2l-2.41,3-.69.88a1.7,1.7,0,0,0-.55,1.2.74.74,0,0,0,.57.61,1.62,1.62,0,0,0,.73,0,6.3,6.3,0,0,0,1.2-.49,32.53,32.53,0,0,0,3.77-2.91,6.54,6.54,0,0,1,1.74-1c.58-.21,1.18-.3,1.72-.45a3.14,3.14,0,0,0,2.18-1.47,1.16,1.16,0,0,0,.11-1,2.6,2.6,0,0,1-.29.87,3,3,0,0,1-2.09,1.23,17.6,17.6,0,0,0-1.77.39,6.76,6.76,0,0,0-1.87,1,41.44,41.44,0,0,1-3.73,2.84,5.92,5.92,0,0,1-1.09.44c-.36.09-.69,0-.69-.17s.21-.54.44-.84l.68-.88,2.32-3.09c.65-.88,1.18-1.6,1.53-2.11A4.15,4.15,0,0,0,310.57,211.1Z" style="fill:#eb996e"></path><path d="M303.66,218.31a3.44,3.44,0,0,0-1.64.29,2.82,2.82,0,0,0-1.24,1.25,7.27,7.27,0,0,0-.65,2.14,11.68,11.68,0,0,1-.56,2.26,3.62,3.62,0,0,1-1.11,1.57,1.47,1.47,0,0,1-1.27.27c-.3-.09-.43-.21-.42-.22s.16,0,.45.1a1.4,1.4,0,0,0,1.1-.33,3.65,3.65,0,0,0,1-1.5,12.61,12.61,0,0,0,.52-2.21,7.11,7.11,0,0,1,.71-2.23,2.94,2.94,0,0,1,1.41-1.31,2.58,2.58,0,0,1,1.28-.2C303.51,218.22,303.67,218.29,303.66,218.31Z" style="fill:#eb996e"></path><path d="M293,212.92a8.78,8.78,0,0,1,1.61.23l3.87.64,3.88.58a11.15,11.15,0,0,1,1.61.28,6.41,6.41,0,0,1-1.63-.05c-1-.09-2.39-.25-3.91-.49s-2.88-.51-3.86-.74A7.53,7.53,0,0,1,293,212.92Z" style="fill:#eb996e"></path><path d="M305.21,220.42a2.18,2.18,0,0,1-.26.44,1.52,1.52,0,0,0-.25,1.24.82.82,0,0,0,.61.52,4.28,4.28,0,0,0,1.06.09,1.83,1.83,0,0,1,1.24.39,1.58,1.58,0,0,1,.45,1.33,1.78,1.78,0,0,1-.75,1.18,2.15,2.15,0,0,1-1.22.43,7.05,7.05,0,0,1-2.07-.36,4.17,4.17,0,0,1-1.27-.61,1.16,1.16,0,0,1-.34-.39s.14.11.41.28a5,5,0,0,0,1.27.5,7.7,7.7,0,0,0,2,.28,1.74,1.74,0,0,0,1.65-1.35,1.24,1.24,0,0,0-.34-1.06,1.55,1.55,0,0,0-1-.32,4.72,4.72,0,0,1-1.13-.13,1.06,1.06,0,0,1-.75-.71,1.58,1.58,0,0,1,.37-1.38C305.06,220.53,305.19,220.41,305.21,220.42Z" style="fill:#eb996e"></path><path d="M307.09,225.44a.68.68,0,0,1,.45.12,1.4,1.4,0,0,1,.68,1.07,1.89,1.89,0,0,1-.82,1.69,3.15,3.15,0,0,1-2.26.46,3.75,3.75,0,0,1-2.05-1,3.6,3.6,0,0,1-.94-1.62,3.46,3.46,0,0,1-.1-1.26c0-.29.1-.45.12-.44a5.53,5.53,0,0,0,.2,1.63,3.55,3.55,0,0,0,.93,1.48,3.59,3.59,0,0,0,1.89.92,2.89,2.89,0,0,0,2-.39,1.68,1.68,0,0,0,.76-1.42,1.37,1.37,0,0,0-.52-1C307.24,225.5,307.08,225.47,307.09,225.44Z" style="fill:#eb996e"></path><path d="M313.37,220.7s-.05-.3.13-.77a3,3,0,0,1,1.28-1.53l0,.28a8.1,8.1,0,0,1-1.06-.34,7,7,0,0,1-3.12-2.2,17,17,0,0,0,3.24,1.89,10.32,10.32,0,0,0,1,.35l.35.11-.32.18a3.21,3.21,0,0,0-1.26,1.34C313.46,220.42,313.41,220.71,313.37,220.7Z" style="fill:#eb996e"></path><path d="M299.55,218.72c.05-.07.58.33.78,1.09s-.07,1.37-.15,1.33,0-.59-.17-1.25S299.48,218.78,299.55,218.72Z" style="fill:#eb996e"></path><path d="M392.36,183.17c-.66.93-29.86,24.05-33.48,25s-37,1.46-37,1.46-2.61,20.53-1.75,21.93c3.17,5.12,41.3,18.67,59.49.32l12.73-46.54" style="fill:#407BFF"></path><path d="M355.71,220.73a5.12,5.12,0,0,1-.36-1.8,16.42,16.42,0,0,1,1.66-8.64,5.19,5.19,0,0,1,1-1.54,37.36,37.36,0,0,0-1.91,5.84A37.88,37.88,0,0,0,355.71,220.73Z" style="fill:#263238"></path><path d="M358.88,221.53a6.78,6.78,0,0,1-.41-2,42.9,42.9,0,0,1-.2-9.61,6.53,6.53,0,0,1,.34-2c.15,0-.07,3,0,6.77S359,221.51,358.88,221.53Z" style="fill:#263238"></path><g style="opacity:0.30000000000000004"><path d="M357.85,208.79a16.37,16.37,0,0,0-4.76,17.44c.32.94.87,2,1.84,2.15a2.16,2.16,0,0,0,2.17-1.25,6.31,6.31,0,0,0,.5-2.62l.75-16"></path></g><polygon points="392.58 186.86 393.35 181.94 387.14 187.41 384.05 198.13 392.58 186.86" style="fill:#263238"></polygon><path d="M399.28,176.86l-4.36,2.45-14,23.55.06,12.33s-3.3,8.63-3.5,15.55,0,32.26,0,32.26L359.71,380.48l15.15,4.89,30-136.79V175Z" style="fill:#407BFF"></path><g style="opacity:0.30000000000000004"><path d="M374.86,385.37l-12-3.87L380,254.06s-2.87-18.68,0-26.86S387.28,207,387.28,207l-5,22.82c.63,17.09-.42,37.49-2.25,59.47h4.58Z"></path></g><path d="M389.06,189.14a3.45,3.45,0,0,1-.36.62c-.23.41-.63,1-1.08,1.75a53.73,53.73,0,0,0-3.36,6.75,70.86,70.86,0,0,0-3.39,10.66,115.24,115.24,0,0,0-2.25,13.53c-.55,4.85-.88,9.48-1,13.7s-.13,8-.1,11.22,0,5.73,0,7.58c0,.85,0,1.53,0,2.06a4.82,4.82,0,0,1,0,.71,3.14,3.14,0,0,1-.06-.71c0-.52,0-1.21-.07-2.06-.05-1.85-.12-4.42-.2-7.57s-.13-7,0-11.25.45-8.88,1-13.73a112,112,0,0,1,2.3-13.59,67.3,67.3,0,0,1,3.52-10.69,47.24,47.24,0,0,1,3.53-6.72c.47-.75.9-1.31,1.17-1.7A3.52,3.52,0,0,1,389.06,189.14Z" style="fill:#263238"></path><g style="opacity:0.30000000000000004"><path d="M370.55,238a71.86,71.86,0,0,1,7.61-20,104.54,104.54,0,0,1-.83,13.47,5.17,5.17,0,0,1-.88,2.71,5.34,5.34,0,0,1-1.62,1.2l-4.59,2.55"></path></g><path d="M433.73,142.26a12.84,12.84,0,0,1,5.59-6.2,8.81,8.81,0,0,1,8.17-.09,6.74,6.74,0,0,1,3.38,7.16,9.24,9.24,0,1,1-8.21,16.56c2.33,3.08.34,8.11-3.31,9.35s-7.9-.91-9.72-4.31-1.49-7.65.12-11.16" style="fill:#263238"></path><path d="M432.09,144.22a4.12,4.12,0,0,1,3.17-2.49,3.31,3.31,0,0,1,3.4,2,2.79,2.79,0,0,1-1.47,3.5,3.87,3.87,0,0,1-1.51,7.4,3.58,3.58,0,0,1-5.31,4.6,4.81,4.81,0,0,1-1.65-3.28,14.4,14.4,0,0,1,.24-3.76c.29-1.88.57-3.77.86-5.65a6.09,6.09,0,0,1,.71-2.39,2.1,2.1,0,0,1,2.1-1.07" style="fill:#407BFF"></path><path d="M386.39,128.76c-1.35-2.42-.51-5.67,1.5-7.59a10.69,10.69,0,0,1,7.69-2.56,31.23,31.23,0,0,1,8.13,1.69,8.86,8.86,0,0,1,15.54,3,5.62,5.62,0,0,1,7.55,6.48l-11.75,5.91L404.64,161A10.85,10.85,0,0,1,387,148.75a9.06,9.06,0,0,1-2.19-2.09,9.48,9.48,0,0,1-5.1-5.27A10,10,0,0,1,386.39,128.76Z" style="fill:#263238"></path><path d="M400.88,177c.27-3.95.46-6.66.46-6.63s-7.62-1.89-8.43-12.1c-.4-5.08.51-13.27,1.46-20,.86-6,5.45-13.12,11.43-12l18.44,6.24c1.81.34,2.33,1.94,2.15,3.77l.08.88L423.31,166l-1.25,12.85a10.64,10.64,0,0,1-10.74,9.52h0A10.65,10.65,0,0,1,400.88,177Z" style="fill:#ffbe9d"></path><path d="M396.29,146.29a1.32,1.32,0,0,0,1.15,1.41,1.24,1.24,0,0,0,1.42-1.06,1.3,1.3,0,0,0-1.14-1.41A1.25,1.25,0,0,0,396.29,146.29Z" style="fill:#263238"></path><path d="M396.06,143.79c.14.18,1.18-.47,2.57-.35s2.36.89,2.52.73-.06-.39-.48-.75a3.55,3.55,0,0,0-2-.79,3.45,3.45,0,0,0-2.06.49C396.15,143.41,396,143.71,396.06,143.79Z" style="fill:#263238"></path><path d="M408.92,147.31a1.3,1.3,0,0,0,1.15,1.4,1.24,1.24,0,0,0,1.42-1.06,1.29,1.29,0,0,0-1.14-1.4A1.24,1.24,0,0,0,408.92,147.31Z" style="fill:#263238"></path><path d="M409.36,144.58c.15.18,1.19-.47,2.58-.36s2.35.89,2.52.73-.06-.38-.48-.74a3.59,3.59,0,0,0-2-.8,3.41,3.41,0,0,0-2.07.5C409.46,144.2,409.29,144.49,409.36,144.58Z" style="fill:#263238"></path><path d="M403.6,154a8.9,8.9,0,0,0-2.22-.59c-.36-.07-.69-.16-.73-.41a1.88,1.88,0,0,1,.32-1l1.27-2.63c1.76-3.73,3.07-6.81,2.92-6.88s-1.71,2.9-3.47,6.63l-1.22,2.64a2.06,2.06,0,0,0-.3,1.38.89.89,0,0,0,.55.57,2.11,2.11,0,0,0,.59.13A9.69,9.69,0,0,0,403.6,154Z" style="fill:#263238"></path><path d="M401.34,170.41a25.76,25.76,0,0,0,13.78-2.53s-4,6.84-14,5.1Z" style="fill:#eb996e"></path><path d="M409.65,140.8c.14.38,1.53.19,3.17.38s3,.62,3.18.28c.1-.16-.14-.52-.67-.88a5.19,5.19,0,0,0-2.36-.81,5.41,5.41,0,0,0-2.48.3C409.89,140.32,409.59,140.62,409.65,140.8Z" style="fill:#263238"></path><path d="M396.32,141.06c.26.34,1.42.1,2.79.2s2.5.41,2.79.1c.13-.15,0-.48-.51-.82a4.34,4.34,0,0,0-2.22-.7,4.25,4.25,0,0,0-2.27.46C396.39,140.59,396.2,140.9,396.32,141.06Z" style="fill:#263238"></path><path d="M419.13,126.61a6.92,6.92,0,0,1-8.66,6.19c-1.52-.4-3.15-1.31-4.54-.59s-1.69,2.86-3,3.85c-1.9,1.4-4.61-.26-6.92.23-1.78.39-3,2-4.26,3.28s-3.1,2.51-4.81,1.86a21.18,21.18,0,0,1,1.05-4.6,6.91,6.91,0,0,1,2.93-3.58c.76-.42,1.62-.64,2.33-1.13,1.54-1.05,2-3.06,3-4.62a7.59,7.59,0,0,1,6.05-3.38c2-.05,4,.7,6,.37,1.45-.25,2.77-1.09,4.24-1.25,2.86-.32,5.33,1.91,7.22,4.08" style="fill:#263238"></path><path d="M409.8,129.93c1.29-.26,3.94-.88,4.7-1.93a7.77,7.77,0,0,1,7-3.34,6.4,6.4,0,0,1,5.35,5.48,9.2,9.2,0,0,1,7.49,5.68,10.66,10.66,0,0,1-1,9.86A18.75,18.75,0,0,0,432.1,148a15.61,15.61,0,0,1,1.94,2.25c2.67,4.34-2.75,6.83-2.75,6.83.38,3.1-2.48,3.45-4.31,3.68s-2.22,5.24-3.67,5.23l-.49-15.27a2,2,0,0,1-.66.21c-3.44.5-3.38-6.15-2.48-8a19.64,19.64,0,0,1-3.12-3.84,14.19,14.19,0,0,1-1-7C414.3,132.16,409.23,130.05,409.8,129.93Z" style="fill:#263238"></path><path d="M422.4,151.63a3,3,0,0,1,4.5-2.18c1,.67,1.66,1.92,1.4,4.19-.72,6.05-6.65,4.08-6.64,3.91S422.09,154.13,422.4,151.63Z" style="fill:#ffbe9d"></path><path d="M423.78,155.48s.1.08.26.18a1.08,1.08,0,0,0,.79.11,2.61,2.61,0,0,0,1.49-2.19,3.6,3.6,0,0,0-.12-1.55,1.21,1.21,0,0,0-.7-.9.53.53,0,0,0-.65.21c-.11.16-.08.29-.11.29s-.12-.11,0-.36a.63.63,0,0,1,.28-.35.81.81,0,0,1,.6-.08,1.49,1.49,0,0,1,1,1.07,3.64,3.64,0,0,1,.17,1.73,2.78,2.78,0,0,1-1.85,2.43,1.14,1.14,0,0,1-.95-.28C423.77,155.62,423.76,155.48,423.78,155.48Z" style="fill:#eb996e"></path><path d="M389.89,147.48s-.58-.34-1.44-1.16A8.77,8.77,0,0,1,386,142a8.46,8.46,0,0,1-.11-3.42,7.36,7.36,0,0,1,1.67-3.51,8.6,8.6,0,0,1,8.16-2.7,7.22,7.22,0,0,1,.83.23c.27.09.52.21.77.31l.39.16-.05-.4a3,3,0,0,1,.49-2,4.71,4.71,0,0,1,1.53-1.42,6.23,6.23,0,0,1,3.88-.79c2.58.25,4.86,1.12,6.91,1.09a6.44,6.44,0,0,0,4.42-1.49,3.63,3.63,0,0,0,.78-1,2,2,0,0,0,.15-.42,5.1,5.1,0,0,1-1,1.31,6.44,6.44,0,0,1-4.31,1.31,16.13,16.13,0,0,1-3.17-.49,26.87,26.87,0,0,0-3.71-.71,8.11,8.11,0,0,0-2.08.06,6.34,6.34,0,0,0-2.06.76,5.13,5.13,0,0,0-1.69,1.56,3.43,3.43,0,0,0-.57,2.33l.34-.25-.82-.34a8.79,8.79,0,0,0-.88-.24,9.05,9.05,0,0,0-8.61,2.88,7.74,7.74,0,0,0-1.72,3.73,8.77,8.77,0,0,0,.17,3.57,8.58,8.58,0,0,0,2.62,4.37,6.21,6.21,0,0,0,1.14.82A2.73,2.73,0,0,0,389.89,147.48Z" style="fill:#455a64"></path><path d="M388.44,126.73a6.42,6.42,0,0,1,1.8-.89,5.11,5.11,0,0,1,2.27-.09,4.44,4.44,0,0,1,2.53,1.39l.26.29.09-.38a6.91,6.91,0,0,1,5-4.84,9,9,0,0,1,5.54.85,23.51,23.51,0,0,0,4.51,1.65,6.68,6.68,0,0,0,3.26,0,4.05,4.05,0,0,0,.82-.34c.17-.1.26-.16.25-.18s-.39.18-1.12.34a6.92,6.92,0,0,1-3.13-.11,26.06,26.06,0,0,1-4.42-1.72,14.38,14.38,0,0,0-2.71-.92,7,7,0,0,0-3.11,0A7.23,7.23,0,0,0,395,127l.35-.09a4.71,4.71,0,0,0-2.77-1.44,5,5,0,0,0-2.4.19,4.1,4.1,0,0,0-1.35.73A1.62,1.62,0,0,0,388.44,126.73Z" style="fill:#455a64"></path><path d="M404.47,157a2,2,0,0,1,1.55-.68,2.37,2.37,0,0,1,1.67.93l0,0s0,0,.06.07h0a1.16,1.16,0,0,1,.26.66,1.67,1.67,0,0,1-.8,1.36,2.12,2.12,0,0,1-2.43,0A1.73,1.73,0,0,1,404.47,157Z" style="fill:#407BFF"></path><path d="M408.07,155.83c-.08,0-.2.3-.5.72a3.27,3.27,0,0,1-3.47,1.34c-.5-.11-.81-.26-.85-.19s.2.33.74.56a3.08,3.08,0,0,0,3.91-1.52C408.15,156.21,408.14,155.84,408.07,155.83Z" style="fill:#263238"></path><path d="M431.42,139.14a1.73,1.73,0,0,0,.26-.2,6.8,6.8,0,0,0,.68-.67,7,7,0,0,0,1.64-3.11,5.51,5.51,0,0,0,0-2.46,5.09,5.09,0,0,0-1.35-2.47,4,4,0,0,0-2.88-1.17,3.76,3.76,0,0,0-3,1.42l.28.15,0-.07a8.34,8.34,0,0,0-.17-6.34,5.5,5.5,0,0,0-4.08-3.13,4.54,4.54,0,0,0-3.37,1,3.77,3.77,0,0,0-.65.71,1,1,0,0,0-.16.3,5.28,5.28,0,0,1,.89-.91,4.42,4.42,0,0,1,3.26-.82,5.26,5.26,0,0,1,3.85,3,8.13,8.13,0,0,1,.12,6.11l0,.07-.31.93.59-.79a3.43,3.43,0,0,1,2.75-1.29,3.74,3.74,0,0,1,2.67,1.06,4.74,4.74,0,0,1,1.3,2.33,5.16,5.16,0,0,1,0,2.34,7.17,7.17,0,0,1-1.51,3.07C431.75,138.82,431.39,139.12,431.42,139.14Z" style="fill:#263238"></path><path d="M441.46,159l.17.07.49.18c.43.15,1.07.37,1.91.63a27.23,27.23,0,0,0,3.1.78,14.4,14.4,0,0,0,4.23.19,9.76,9.76,0,0,0,4.78-1.81A7.55,7.55,0,0,0,459,154a11.67,11.67,0,0,0-1-6.41,8,8,0,0,0-2-2.8,5.1,5.1,0,0,0-3.34-1.26,4,4,0,0,0-2.45.79l.22.24a7.08,7.08,0,0,0,1.6-3,8.08,8.08,0,0,0,.13-3.24,7.25,7.25,0,0,0-3.26-5A8.48,8.48,0,0,0,443.6,132a8.18,8.18,0,0,0-4.41,1.69,9.5,9.5,0,0,0-2.5,3,10.07,10.07,0,0,0-1,2.77,8.74,8.74,0,0,0-.16,1.84c0,.2,0,.35,0,.48s0,.16,0,.16a11.81,11.81,0,0,1,.23-2.46,10,10,0,0,1,1-2.71,9.14,9.14,0,0,1,2.47-2.9,8.09,8.09,0,0,1,4.3-1.62,8.36,8.36,0,0,1,5.11,1.27,7,7,0,0,1,3.11,4.83,7.85,7.85,0,0,1-.14,3.12,6.66,6.66,0,0,1-1.52,2.81l.21.23a3.63,3.63,0,0,1,2.25-.72,4.8,4.8,0,0,1,3.13,1.18,7.65,7.65,0,0,1,2,2.69,11.54,11.54,0,0,1,1,6.24,7.29,7.29,0,0,1-2.76,4.88,9.7,9.7,0,0,1-4.65,1.8,14.5,14.5,0,0,1-4.17-.15,28.87,28.87,0,0,1-3.09-.72l-1.93-.57-.5-.15C441.52,159,441.46,159,441.46,159Z" style="fill:#263238"></path><path d="M432.23,168.66a5.45,5.45,0,0,0,.72.45,14.34,14.34,0,0,0,2.11,1,8.94,8.94,0,0,0,3.39.6,6.2,6.2,0,0,0,3.92-1.53,4.77,4.77,0,0,0,1.23-1.85,6.37,6.37,0,0,0,.35-2,8.85,8.85,0,0,0-.71-3.37,16.88,16.88,0,0,0-1-2.08,3.87,3.87,0,0,0-.45-.72,5.22,5.22,0,0,0,.34.77c.23.5.58,1.2.92,2.11a8.89,8.89,0,0,1,.62,3.29,5,5,0,0,1-1.49,3.65,6,6,0,0,1-3.72,1.46,9.18,9.18,0,0,1-3.31-.51C433.3,169.23,432.26,168.59,432.23,168.66Z" style="fill:#263238"></path><path d="M429,172.58a2,2,0,0,1-.77-.31,2.18,2.18,0,0,1-.84-2,1.81,1.81,0,0,1,.7-1.29,1.26,1.26,0,0,1,1.55,0,1.14,1.14,0,0,1,.36.78.86.86,0,0,1-.43.74,1.44,1.44,0,0,1-.95.14,2.45,2.45,0,0,1-1-.37,4.41,4.41,0,0,1-1.87-3.5,8.23,8.23,0,0,1,.64-3.35,7,7,0,0,1,1-2.06.94.94,0,0,1,.73-.33.43.43,0,0,0-.22,0,1,1,0,0,0-.6.28,2.7,2.7,0,0,0-.59.84c-.18.35-.38.76-.57,1.22a8.31,8.31,0,0,0-.73,3.45,5.24,5.24,0,0,0,.51,2,4.11,4.11,0,0,0,1.49,1.72,2.25,2.25,0,0,0,2.26.23,1.14,1.14,0,0,0,.57-1,1.43,1.43,0,0,0-.46-1,1.38,1.38,0,0,0-1-.33,1.83,1.83,0,0,0-.92.33,2,2,0,0,0-.76,1.49,2.31,2.31,0,0,0,1,2.12,1.55,1.55,0,0,0,.62.22C428.92,172.61,429,172.59,429,172.58Z" style="fill:#263238"></path><path d="M449.91,159.44a.82.82,0,0,0,.28,0,2.25,2.25,0,0,0,.78-.1,3.2,3.2,0,0,0,2-2,4.17,4.17,0,0,0-1.12-4.05,6.15,6.15,0,0,0-4.83-1.9,6.83,6.83,0,0,0-1.24.2l.19.21a4.89,4.89,0,0,0-.92-4.65,4.39,4.39,0,0,0-1.71-1.24,4.76,4.76,0,0,0-1.8-.32,4.57,4.57,0,0,0-2.49.73,3.14,3.14,0,0,0-.56.43c-.11.12-.17.18-.16.19s.26-.22.78-.52a4.73,4.73,0,0,1,4.13-.27,4,4,0,0,1,1.59,1.19,4.61,4.61,0,0,1,.84,4.35l-.1.29.29-.08a6.32,6.32,0,0,1,1.18-.19,5.94,5.94,0,0,1,4.6,1.78,4,4,0,0,1,1.12,3.78,3.14,3.14,0,0,1-1.83,2A3.6,3.6,0,0,1,449.91,159.44Z" style="fill:#455a64"></path><path d="M450.64,140.76a1.21,1.21,0,0,0-.41-.16,3.39,3.39,0,0,0-1.22-.07,4,4,0,0,0-1.76.62,3.83,3.83,0,0,0-1.52,1.81l.26-.05a3.17,3.17,0,0,0-1.92-1,4.51,4.51,0,0,0-3,.7,6.82,6.82,0,0,0-1.81,1.78,11.26,11.26,0,0,0-.89,1.44,1.91,1.91,0,0,0-.26.57c.05,0,.47-.76,1.33-1.88a7.43,7.43,0,0,1,1.79-1.66,4.24,4.24,0,0,1,2.82-.63,2.9,2.9,0,0,1,1.73.87l.17.19.09-.23a3.64,3.64,0,0,1,1.38-1.7,4.12,4.12,0,0,1,1.64-.65A5.88,5.88,0,0,1,450.64,140.76Z" style="fill:#455a64"></path><path d="M423.16,171.2l-22.63,3.21-1,7.15S388.28,201.23,387.28,207s-6,20-5,30.78S380,289.27,380,289.27h5.75L408.05,235Z" style="fill:#263238"></path><path d="M438.78,433.1l5.68,20.55s-19.31,11.16-18.63,15.06l40.57-8.07-7.54-32.38Z" style="fill:#407BFF"></path><g style="opacity:0.6000000000000001"><path d="M456.49,448.94a1.7,1.7,0,0,1,1.58,1.61,1.62,1.62,0,0,1-1.58,1.58,1.78,1.78,0,0,1-1.66-1.71,1.68,1.68,0,0,1,1.82-1.46" style="fill:#fff"></path></g><g style="opacity:0.6000000000000001"><path d="M466.4,460.64l-.76-3.26-38.9,9.15a2.84,2.84,0,0,0-1.05,2.51Z" style="fill:#fff"></path></g><path d="M443.76,453.6c.06.19,1.06,0,2.18.45s1.83,1.11,2,1-.4-1.18-1.76-1.64S443.68,453.43,443.76,453.6Z" style="fill:#263238"></path><path d="M440,456.35c0,.2.93.33,1.79,1s1.27,1.51,1.47,1.45,0-1.19-1-2S439.92,456.16,440,456.35Z" style="fill:#263238"></path><path d="M438.77,462c.18,0,.22-1.05-.54-2s-1.78-1.17-1.82-1,.66.62,1.27,1.41S438.57,462,438.77,462Z" style="fill:#263238"></path><path d="M443,448.77c.12.16,1-.32,2.09-.51s2.08-.05,2.14-.24-.94-.7-2.27-.45S442.85,448.64,443,448.77Z" style="fill:#263238"></path><g style="opacity:0.30000000000000004"><polygon points="439.91 437.17 440.92 440.83 460.65 435.94 459.88 432.61 439.91 437.17"></polygon></g><path d="M441.92,444.61a3.87,3.87,0,0,0,2-.49,9.57,9.57,0,0,0,1.95-1.15,9.28,9.28,0,0,0,1-.89,3,3,0,0,0,.49-.62.88.88,0,0,0-.16-1.07,1.11,1.11,0,0,0-1-.24,3.09,3.09,0,0,0-.73.28,8.69,8.69,0,0,0-1.15.73,7.22,7.22,0,0,0-1.56,1.66c-.73,1.09-.88,1.9-.8,1.92s.41-.68,1.19-1.62a8.18,8.18,0,0,1,1.56-1.44,7.35,7.35,0,0,1,1.07-.63c.4-.21.76-.3.92-.14s.07.09,0,.24a2.23,2.23,0,0,1-.37.45,10.44,10.44,0,0,1-.92.86,11.2,11.2,0,0,1-1.77,1.21A14.09,14.09,0,0,0,441.92,444.61Z" style="fill:#263238"></path><path d="M442.24,444.83a3.28,3.28,0,0,0,.07-2.07,7.06,7.06,0,0,0-.8-2.15,7.21,7.21,0,0,0-.81-1.1,1.71,1.71,0,0,0-1.52-.71,1,1,0,0,0-.71.76,2.7,2.7,0,0,0,0,.79,4.84,4.84,0,0,0,.32,1.36,4.7,4.7,0,0,0,1.36,1.88c1,.85,1.91.89,1.91.82s-.74-.33-1.58-1.19a4.71,4.71,0,0,1-1.08-1.74,4.06,4.06,0,0,1-.24-1.17c0-.45,0-.83.21-.82s.61.19.86.49a7.52,7.52,0,0,1,.76,1,7.77,7.77,0,0,1,.87,1.92C442.16,444,442.13,444.82,442.24,444.83Z" style="fill:#263238"></path><path d="M379.51,431.86,377,453s-22.1,3-22.94,6.88l40.6,7.89L399.93,435Z" style="fill:#407BFF"></path><g style="opacity:0.6000000000000001"><path d="M389.9,453.22a1.69,1.69,0,0,1,.86,2.09,1.62,1.62,0,0,1-2.06.86,1.77,1.77,0,0,1-.89-2.21,1.68,1.68,0,0,1,2.24-.66" style="fill:#fff"></path></g><g style="opacity:0.6000000000000001"><path d="M394.65,467.8l.53-3.31-39.47-6.25a2.87,2.87,0,0,0-1.93,1.93Z" style="fill:#fff"></path></g><path d="M376.36,452.72c0,.2,1,.44,1.84,1.24s1.28,1.71,1.47,1.66.08-1.25-1-2.19S376.35,452.53,376.36,452.72Z" style="fill:#263238"></path><path d="M371.8,453.82c-.08.19.74.66,1.28,1.61s.61,1.87.81,1.9.5-1.09-.2-2.26S371.83,453.63,371.8,453.82Z" style="fill:#263238"></path><path d="M368.57,458.57c.17.07.61-.88.26-2.05s-1.21-1.76-1.32-1.6.38.82.65,1.79S368.37,458.52,368.57,458.57Z" style="fill:#263238"></path><path d="M377.47,448c.06.19,1,.06,2.13.31s1.94.74,2.07.59-.6-1-1.92-1.28S377.4,447.78,377.47,448Z" style="fill:#263238"></path><g style="opacity:0.30000000000000004"><polygon points="379.02 436.05 378.56 439.82 398.68 442.77 399.23 439.39 379.02 436.05"></polygon></g><path d="M378.06,443.69a3.75,3.75,0,0,0,2.05.31,9.41,9.41,0,0,0,2.24-.32,10.11,10.11,0,0,0,1.27-.44,2.5,2.5,0,0,0,.7-.39.88.88,0,0,0,.25-1.05,1.12,1.12,0,0,0-.8-.59,3,3,0,0,0-.79,0,7.07,7.07,0,0,0-1.34.24,7.31,7.31,0,0,0-2.08.94c-1.08.73-1.52,1.43-1.46,1.48s.64-.48,1.72-1.05a8.12,8.12,0,0,1,2-.74,7,7,0,0,1,1.24-.18c.45-.05.82,0,.9.21s0,.11-.08.23a2.91,2.91,0,0,1-.51.28c-.4.18-.8.32-1.18.45a12.48,12.48,0,0,1-2.1.45A15.93,15.93,0,0,0,378.06,443.69Z" style="fill:#263238"></path><path d="M378.27,444c.07,0,.58-.61.85-1.89a6.57,6.57,0,0,0,.07-2.29,6.71,6.71,0,0,0-.33-1.32,1.7,1.7,0,0,0-1.14-1.24,1,1,0,0,0-1,.44,3,3,0,0,0-.32.72,4.47,4.47,0,0,0-.22,1.38,4.82,4.82,0,0,0,.55,2.25c.63,1.18,1.43,1.55,1.45,1.48s-.55-.58-1-1.69a4.67,4.67,0,0,1-.35-2,4.46,4.46,0,0,1,.22-1.17c.13-.43.35-.75.51-.68s.49.41.61.78a6.84,6.84,0,0,1,.33,1.19,7.63,7.63,0,0,1,.08,2.1C378.5,443.26,378.17,444,378.27,444Z" style="fill:#263238"></path><path d="M410.17,369.19c0,.75-9.29,73.35-9.29,73.35l-27-5.12,10.85-74.93Z" style="fill:#263238"></path><path d="M443.05,361.43c.25.71,19,74,19,74l-25.66,5.91-22-78.85Z" style="fill:#263238"></path><path d="M418.87,173.52l5.28-1.8,9.22,12.6,2.48,40.48-6.37,20.85s18,39.68,18.25,49.53,8.36,101.55,8.36,101.55L373,403.5l15.35-150s2-36.78,4.35-42.28S418.87,173.52,418.87,173.52Z" style="fill:#407BFF"></path><path d="M426,303.89a1,1,0,0,1-.32.16,5.16,5.16,0,0,1-1,.27,7.08,7.08,0,0,1-3.8-.55,10.14,10.14,0,0,1-4.29-3.73,27.43,27.43,0,0,1-2.94-6.31,40.36,40.36,0,0,1-2.14-12.39,36.17,36.17,0,0,1,.17-3.81,6.09,6.09,0,0,1,.22-1.38,8.68,8.68,0,0,1,0,1.39c0,.9-.06,2.2,0,3.79a43.69,43.69,0,0,0,2.26,12.24,28.4,28.4,0,0,0,2.85,6.2,10,10,0,0,0,4,3.66,7.37,7.37,0,0,0,3.62.69C425.52,304,426,303.84,426,303.89Z" style="fill:#263238"></path><path d="M456.09,396.73l-.41,0-1.22.12-4.69.43-17.45,1.5L373,403.75l-.3,0,0-.31c.66-6.52,1.35-13.27,2.06-20.19,2.94-28.47,5.61-54.24,7.54-72.91,1-9.31,1.78-16.86,2.34-22.09.29-2.59.51-4.61.66-6,.08-.67.14-1.19.19-1.56a5,5,0,0,1,.08-.53s0,.18,0,.53-.07.9-.13,1.57c-.13,1.39-.32,3.42-.57,6-.51,5.24-1.26,12.79-2.18,22.11-1.89,18.68-4.5,44.45-7.38,72.92-.71,6.92-1.4,13.67-2.07,20.19l-.28-.28,59.32-4.74,17.46-1.35,4.7-.34,1.21-.07A3.31,3.31,0,0,1,456.09,396.73Z" style="fill:#263238"></path><path d="M428.88,178.18s-.07.06-.22.16l-.66.41-2.56,1.56c-1.11.67-2.47,1.5-4,2.5-.78.51-1.61,1.05-2.42,1.68a2.48,2.48,0,0,0-.49.48c0,.21-.06.53-.1.79-.06.55-.13,1.12-.22,1.69a68.23,68.23,0,0,1-1.53,7.48,36.75,36.75,0,0,1-3.11,8.21c-1.51,2.8-4.21,4.81-6.7,7a17,17,0,0,0-3.36,3.72,7.3,7.3,0,0,0-1.1,4.86,26.82,26.82,0,0,0,1.45,5,17.84,17.84,0,0,1,1,5.06,24.09,24.09,0,0,1-1.7,9.54,45.26,45.26,0,0,1-3.92,7.85c-1.43,2.34-2.84,4.47-4.12,6.41-2.57,3.88-4.62,7-5.95,9.28-.66,1.12-1.16,2-1.49,2.59l-.38.68a1.33,1.33,0,0,1-.15.23s0-.09.1-.25l.33-.71c.31-.61.78-1.51,1.42-2.64,1.27-2.28,3.28-5.47,5.81-9.38,1.26-2,2.66-4.09,4.06-6.43a45.19,45.19,0,0,0,3.84-7.79,23.89,23.89,0,0,0,1.64-9.35,17.35,17.35,0,0,0-1-4.93,26.54,26.54,0,0,1-1.47-5.09,7.71,7.71,0,0,1,1.17-5.19,17.22,17.22,0,0,1,3.47-3.83c2.52-2.2,5.15-4.16,6.61-6.85a37.05,37.05,0,0,0,3.11-8.08,68.31,68.31,0,0,0,1.59-7.42q.14-.85.24-1.68c0-.29.05-.52.11-.83a2,2,0,0,1,.61-.66c.85-.64,1.69-1.17,2.47-1.66,1.57-1,2.95-1.79,4.08-2.44l2.61-1.47.69-.37A1.75,1.75,0,0,1,428.88,178.18Z" style="fill:#263238"></path><path d="M427.65,244.64a8.27,8.27,0,0,1-2.54-.28,19.18,19.18,0,0,1-5.74-2.32,19.45,19.45,0,0,1-4.69-4,7.7,7.7,0,0,1-1.41-2.14,28.1,28.1,0,0,0,6.37,5.73A28.73,28.73,0,0,0,427.65,244.64Z" style="fill:#263238"></path><path d="M429.28,246.39a6.81,6.81,0,0,1-1.95.49,28.32,28.32,0,0,1-9.66-.07,6.32,6.32,0,0,1-1.94-.53c0-.15,3,.44,6.77.46S429.25,246.23,429.28,246.39Z" style="fill:#263238"></path><path d="M430.3,181.21s-6.87.1-9.25,4.16-7.16,33.52,7.15,59c.66,1.17,1.28,1.24,1.28,1.24l2.1-6.88s-3.89-28.42-4.47-31.55-1.52-21.5,1.22-21.85a18.14,18.14,0,0,1,2.05-.13,14.06,14.06,0,0,1,9.06,3.21l2,1.59A15.46,15.46,0,0,0,430.3,181.21Z" style="fill:#263238"></path><g style="opacity:0.30000000000000004"><path d="M425.61,193.86c-7.41,13.69-8,30.17-5.33,45.51a11.06,11.06,0,0,0,1.87,5.22c1.16,1.46,3.33,2.3,5,1.37,1.25-.7,2.29-.38,2.76-1.73,1.51-4.25,2.82-9.74,4.33-14C431.42,218,428.38,206.12,425.61,193.86Z"></path></g><g style="opacity:0.30000000000000004"><path d="M411.87,280.18a49.17,49.17,0,0,0,3.74,29.69,17.55,17.55,0,0,0,3.8,5.67,7.85,7.85,0,0,0,6.26,2.24c2.85-.4,5.08-2.84,6.06-5.55.7-2,.78-4.37-.64-5.9-1.72-1.86-4.67-1.55-7.17-2-4.57-.84-8.14-4.68-9.93-9s-2.12-9-2.42-13.67"></path></g><path d="M460.41,235.08c-.24-6.2-12.06-30.71-12.06-30.71s-5.47-12.18-6.76-14.64c-2.81-5.35-10.65-5.92-13.48-4.29l2.19,30.24,6.49,22-12.64,23.85,15.74,15.5C460.88,274.44,460.64,241.28,460.41,235.08Z" style="fill:#407BFF"></path><path d="M455.27,238.44a7.69,7.69,0,0,1-2.87-.41c-1.75-.44-4-1.46-6.63-2.07a11,11,0,0,0-3.72-.28,7.46,7.46,0,0,0-2.87.93,7.89,7.89,0,0,0-2.07,1.9,1.85,1.85,0,0,1,.33-.71,5.23,5.23,0,0,1,1.54-1.5,7.48,7.48,0,0,1,3-1.1,10.85,10.85,0,0,1,3.89.25c2.7.64,4.93,1.71,6.62,2.22S455.28,238.36,455.27,238.44Z" style="fill:#263238"></path><path d="M447.91,229.06a11.94,11.94,0,0,1-2.31.41,15.26,15.26,0,0,0-5.28,1.63,7.09,7.09,0,0,0-3.32,4.17,8.1,8.1,0,0,0-.13,2.28s-.13-.2-.23-.61a4.43,4.43,0,0,1,0-1.75,7,7,0,0,1,3.41-4.55,13.48,13.48,0,0,1,5.49-1.53A8.68,8.68,0,0,1,447.91,229.06Z" style="fill:#263238"></path><path d="M441.87,277.32a5.85,5.85,0,0,1-1.15-.45,28.68,28.68,0,0,1-3-1.55,36,36,0,0,1-4.12-2.82,41.31,41.31,0,0,1-4.49-4.15,42.66,42.66,0,0,1-3.77-4.81,38.22,38.22,0,0,1-2.47-4.34,29.1,29.1,0,0,1-1.3-3.1,5.75,5.75,0,0,1-.35-1.18c.09,0,.68,1.61,2,4.11a41.79,41.79,0,0,0,2.54,4.24,47.75,47.75,0,0,0,3.75,4.73,44.9,44.9,0,0,0,4.41,4.13,41.19,41.19,0,0,0,4,2.87C440.31,276.5,441.91,277.23,441.87,277.32Z" style="fill:#263238"></path><path d="M436.79,237.71a21.62,21.62,0,0,1-1.24-3.21c-.7-2-1.61-4.79-2.51-7.9s-1.63-5.95-2.1-8a20.86,20.86,0,0,1-.64-3.38,23.74,23.74,0,0,1,1,3.29c.56,2,1.35,4.86,2.25,8s1.71,5.76,2.36,7.93A24.07,24.07,0,0,1,436.79,237.71Z" style="fill:#263238"></path><path d="M424.15,261.56c-.13-.07,2.6-5.46,6.09-12.05s6.42-11.87,6.55-11.81-2.6,5.47-6.09,12.05S424.28,261.63,424.15,261.56Z" style="fill:#263238"></path><path d="M415.74,385c-.14,0,.62-9.65,1.71-21.52S419.53,342,419.67,342s-.62,9.65-1.7,21.52S415.89,385,415.74,385Z" style="fill:#263238"></path><path d="M425.07,388.88a87.47,87.47,0,0,1-2.16-9.31,87.89,87.89,0,0,1-1.66-9.41,88.08,88.08,0,0,1,2.17,9.31A88.76,88.76,0,0,1,425.07,388.88Z" style="fill:#263238"></path><path d="M417.21,364c0,.15-8.78-.08-19.6-.5s-19.59-.87-19.58-1,8.78.08,19.6.49S417.21,363.81,417.21,364Z" style="fill:#fafafa"></path><path d="M453.49,368.16c0,.15-8.08.06-18-.19s-18-.57-18-.72,8.08-.05,18.05.2S453.5,368,453.49,368.16Z" style="fill:#fafafa"></path><path d="M418,353.45c0,.14-8.83-.15-19.7-.65s-19.69-1-19.68-1.18,8.82.15,19.7.66S418.05,353.31,418,353.45Z" style="fill:#fafafa"></path><path d="M452.66,358.08c0,.15-7.76,0-17.31-.29s-17.31-.67-17.3-.81,7.75,0,17.31.29S452.67,357.94,452.66,358.08Z" style="fill:#fafafa"></path></g><g id="freepik--Plant--inject-64"><path d="M76.26,445c.73-2.85-1.13-5.7-3.22-7.76s-4.58-3.91-5.67-6.63c-1.76-4.42.61-10.13-2.4-13.82-1.76-2.16-4.93-2.89-6.5-5.2a11.89,11.89,0,0,1-1.41-4.14,42.06,42.06,0,0,0-10.45-19.56,36.4,36.4,0,0,0,4.1,18.85c1.21,2.32,2.71,4.57,3.11,7.16.66,4.2-1.69,8.52-.66,12.64,1.18,4.71,6.48,7.87,6.73,12.72.21,4.1-3.36,7.7-3.1,11.8a11.18,11.18,0,0,0,1.83,4.87c3.17,5.27,7.83,8.9,14.89,8.78l8.65.31Z" style="fill:#407BFF"></path><g style="opacity:0.30000000000000004"><path d="M76.26,445c.73-2.85-1.13-5.7-3.22-7.76s-4.58-3.91-5.67-6.63c-1.76-4.42.61-10.13-2.4-13.82-1.76-2.16-4.93-2.89-6.5-5.2a11.89,11.89,0,0,1-1.41-4.14,42.06,42.06,0,0,0-10.45-19.56,36.4,36.4,0,0,0,4.1,18.85c1.21,2.32,2.71,4.57,3.11,7.16.66,4.2-1.69,8.52-.66,12.64,1.18,4.71,6.48,7.87,6.73,12.72.21,4.1-3.36,7.7-3.1,11.8a11.18,11.18,0,0,0,1.83,4.87c3.17,5.27,7.83,8.9,14.89,8.78l8.65.31Z"></path></g><path d="M83.91,465.21a7,7,0,0,0,2.38,0,14.06,14.06,0,0,0,2.81-.71,11.68,11.68,0,0,0,3.47-1.9,4.76,4.76,0,0,0,1.43-1.9,9.06,9.06,0,0,0,.41-2.59,27.13,27.13,0,0,1,.2-2.79,7.65,7.65,0,0,1,1.06-2.78c1-1.8,2.71-3.49,3.26-5.92s.17-5-.24-7.59-.79-5.42.21-8.12,2.82-5.15,3.77-8.2.5-6.39.7-9.66a12.77,12.77,0,0,1,1.13-4.8c.7-1.53,1.67-3,2.43-4.59,1.53-3.26,1.8-6.95,2.22-10.57.21-1.82.42-3.67.62-5.53a27.27,27.27,0,0,1,1-5.53,48.64,48.64,0,0,1,2.06-5.35,17.86,17.86,0,0,0,1-2.8,27.58,27.58,0,0,0,.28-3,36.38,36.38,0,0,0-.23-6c-.24-2-.6-4-.81-6,0-.11,0-.23,0-.34l-.05-.4-.35.18a13.44,13.44,0,0,0-4.66,3.93,21.08,21.08,0,0,0-2.86,5.27c-1.44,3.72-2,7.61-2.69,11.33a30.91,30.91,0,0,1-3.55,10.46c-.95,1.54-2.1,2.94-3.1,4.45a12.31,12.31,0,0,0-2.15,4.93c-.51,3.66,1.5,6.87,1.08,10.11a11.16,11.16,0,0,1-1.57,4.49c-.79,1.38-1.71,2.66-2.59,3.95a25.87,25.87,0,0,0-2.32,4,12.62,12.62,0,0,0-1.06,4.34c-.21,2.91.2,5.68,0,8.29A19.16,19.16,0,0,1,85,441c-1,2.13-2.21,4.06-3.18,5.92a29.89,29.89,0,0,0-1.31,2.76,13,13,0,0,0-.76,2.73,17.16,17.16,0,0,0-.07,4.94,12.44,12.44,0,0,0,2.48,6.3,5.79,5.79,0,0,0,.7.75,3.33,3.33,0,0,0,.57.49l.49.34a10.82,10.82,0,0,1-1.67-1.65,12.5,12.5,0,0,1-2.35-6.26,16.71,16.71,0,0,1,.11-4.86,13.58,13.58,0,0,1,.76-2.67c.37-.9.83-1.8,1.32-2.72,1-1.85,2.16-3.77,3.23-5.91a19.36,19.36,0,0,0,2.21-7.23c.23-2.67-.18-5.45,0-8.3a12.25,12.25,0,0,1,1-4.19,25.55,25.55,0,0,1,2.29-3.91c.88-1.28,1.81-2.57,2.62-4a11.55,11.55,0,0,0,1.65-4.67c.42-3.45-1.58-6.69-1.06-10.09a11.66,11.66,0,0,1,2.07-4.71c1-1.48,2.14-2.88,3.12-4.46A31.43,31.43,0,0,0,102.93,379c.74-3.74,1.26-7.59,2.68-11.23a20.8,20.8,0,0,1,2.78-5.14,12.86,12.86,0,0,1,4.46-3.76l-.39-.22c0,.11,0,.23,0,.35.21,2,.57,4,.81,6a35.43,35.43,0,0,1,.23,5.9c-.06,1-.12,2-.27,2.89a17.36,17.36,0,0,1-1,2.69,50.1,50.1,0,0,0-2.09,5.42,27.46,27.46,0,0,0-1,5.62q-.31,2.79-.61,5.53c-.42,3.63-.69,7.27-2.17,10.41-.73,1.57-1.7,3-2.42,4.6a13.46,13.46,0,0,0-1.16,5c-.18,3.34.25,6.6-.65,9.56s-2.79,5.4-3.74,8.19-.6,5.74-.18,8.32.83,5.14.28,7.44-2.15,4-3.19,5.85a7.93,7.93,0,0,0-1.07,2.89,26,26,0,0,0-.19,2.83,8.77,8.77,0,0,1-.36,2.52,4.85,4.85,0,0,1-1.35,1.82,12.18,12.18,0,0,1-3.38,1.91,15,15,0,0,1-2.78.75,10.74,10.74,0,0,1-1.75.17Z" style="fill:#263238"></path><path d="M111.24,363.31a.91.91,0,0,0-.08.26c0,.21-.12.47-.19.78-.17.68-.38,1.71-.7,3s-1.13,2.73-1.8,4.51a64.72,64.72,0,0,0-2,6.14c-.66,2.31-1.25,4.87-1.86,7.61a32,32,0,0,1-2.77,8.45c-.71,1.41-1.51,2.83-2.14,4.38a20.7,20.7,0,0,0-1.25,5,99.28,99.28,0,0,1-1.86,10.46c-1.73,7.09-3.39,13.84-4.89,20l-4.1,16.3c-1.14,4.61-2.06,8.36-2.72,11-.3,1.27-.54,2.27-.71,3-.07.32-.12.57-.17.78a.8.8,0,0,0,0,.27A1.09,1.09,0,0,0,84,465l.22-.76.81-3c.7-2.63,1.68-6.36,2.89-10.95S90.56,440.1,92.15,434s3.18-12.9,4.93-20a97.62,97.62,0,0,0,1.86-10.51,20.18,20.18,0,0,1,1.2-4.84c.61-1.51,1.4-2.93,2.11-4.35a32.41,32.41,0,0,0,2.76-8.58c.59-2.75,1.15-5.3,1.78-7.6s1.3-4.36,2-6.13,1.4-3.25,1.72-4.58.46-2.33.6-3c0-.32.1-.58.13-.79A1,1,0,0,0,111.24,363.31Z" style="fill:#263238"></path><path d="M85.44,465.24c5.65-3.36,7.27-13.55,4.91-19.69s-6.48-11.74-7.12-18.28c-.49-5,1.16-10.19,0-15.11-1.58-6.63-8.06-11.77-8-18.58,0-3.83,2.22-7.43,2-11.25-.21-4.69-3.81-8.41-6-12.54-3.41-6.32-3.63-13.79-4.8-20.88s-3.86-14.68-10.15-18.16c-.92,6-2.51,10.14-2,18.29.18,2.93,3.58,8.53,4,14.95.28,3.83.47,7.67.7,11.51s.47,7.54,1.81,11c1,2.68,2.68,5.11,3.44,7.87,1.43,5.2-.45,10.84.71,16.11,1,4.46,4.07,8.3,4.7,12.83.88,6.36-3.23,13-1.13,19,1,3,3.53,5.43,4.23,8.54.54,2.41,0,5,.44,7.38.8,3.91,8.24,6.94,12.22,6.7" style="fill:#407BFF"></path><path d="M57.85,336.72a1.45,1.45,0,0,0,0,.34l.12,1c.13.87.28,2.15.57,3.8s1.17,3.52,1.86,5.78,1.43,4.83,2.07,7.73,1.18,6.11,1.75,9.56a39.9,39.9,0,0,0,2.89,10.81c.8,1.81,1.69,3.62,2.35,5.54a24.42,24.42,0,0,1,1.19,6.11,124.9,124.9,0,0,0,1.66,13.16l4.88,25.13c1.58,7.7,3,14.64,4.21,20.48s2.19,10.5,2.88,13.79c.34,1.6.62,2.85.81,3.75.09.4.17.72.22,1a1.89,1.89,0,0,0,.1.33,2,2,0,0,0,0-.34c0-.25-.1-.58-.17-1-.17-.9-.41-2.16-.71-3.77-.65-3.3-1.57-8-2.71-13.83s-2.55-12.79-4.09-20.5-3.12-16.21-4.83-25.13a123.67,123.67,0,0,1-1.66-13.11A25.22,25.22,0,0,0,70,381.1c-.68-2-1.58-3.78-2.38-5.57a40.2,40.2,0,0,1-2.91-10.68c-.58-3.45-1.15-6.67-1.82-9.57s-1.41-5.51-2.16-7.75-1.6-4.11-1.94-5.73-.5-2.91-.67-3.77c-.07-.4-.13-.73-.18-1A1.3,1.3,0,0,0,57.85,336.72Z" style="fill:#263238"></path></g></svg>
